<svg width="56" height="57" viewBox="0 0 56 57" fill="none" xmlns="http://www.w3.org/2000/svg">
<path d="M28.8636 1.52588e-05C29.0533 0.0632574 29.2873 0.0189874 29.4897 0.0316358C44.1745 0.708326 55.7035 13.1101 55.9944 27.9593C56.317 44.6426 42.5302 57.8855 26.1758 56.8736C12.1803 56.0009 0.651299 44.2379 0.0378508 29.9641C0.0315266 29.7554 0.0694718 29.5214 0.00622972 29.3317C0.0188781 28.7562 -0.0127429 28.1744 0.00622972 27.5989C0.467897 12.5725 12.3827 0.468007 27.1624 1.52588e-05H28.8636ZM26.7893 1.30913C13.5337 1.82139 2.56753 12.5725 1.37226 25.9482C-0.0127429 41.4679 11.6428 55.0017 26.9347 55.6025C41.6954 56.178 54.1415 44.5794 54.7106 29.5657C55.3178 13.5465 42.5176 0.702002 26.7893 1.30913Z" fill="#9564F4"/>
<path d="M6.17242 24.4431V25.7964C6.75425 24.7846 7.65861 24.2786 8.87918 24.2786C9.44836 24.2786 9.97959 24.4051 10.4729 24.6518C10.9598 24.8984 11.3583 25.2842 11.6492 25.7964C11.9464 26.315 12.0919 26.9475 12.0919 27.6937V32.6898H10.1314V28.2692C10.1314 27.6178 9.98592 27.0929 9.70133 26.6945C9.41674 26.2961 8.9614 26.0937 8.3353 26.0937C7.93055 26.0937 7.55742 26.1885 7.22856 26.3719C6.8997 26.5617 6.64041 26.8336 6.45068 27.1941C6.26096 27.5546 6.17242 27.9973 6.17242 28.5159V32.6898H4.21191V24.4431H6.17242Z" fill="#222323"/>
<path d="M15.6017 32.3167C14.9377 31.9625 14.4001 31.4503 14.0017 30.7926C13.6033 30.1349 13.4009 29.3823 13.4009 28.5348C13.4009 27.6874 13.6033 26.9411 14.008 26.2897C14.4128 25.6383 14.9503 25.145 15.6144 24.7972C16.2784 24.4494 16.9994 24.2786 17.7646 24.2786C18.5298 24.2786 19.2571 24.4494 19.8895 24.7909C20.5283 25.1324 21.0279 25.6004 21.3884 26.2012C21.7488 26.802 21.9322 27.4724 21.9322 28.2186C21.9322 28.3641 21.9259 28.5159 21.9069 28.674C21.888 28.8321 21.869 28.9775 21.85 29.1103H15.4309C15.5068 29.4708 15.6586 29.7997 15.8736 30.0906C16.095 30.3815 16.3796 30.6155 16.7211 30.7862C17.0689 30.957 17.4547 31.0392 17.8847 31.0392C18.4097 31.0392 18.8713 30.938 19.2508 30.7357C19.6365 30.5333 19.9591 30.2171 20.2247 29.787L21.6603 30.9443C21.1544 31.6463 20.5852 32.1459 19.9591 32.4305C19.333 32.7151 18.5931 32.8606 17.733 32.8606C16.9614 32.8606 16.2468 32.6835 15.5827 32.323L15.6017 32.3167ZM16.6831 26.1569C16.3416 26.3214 16.057 26.549 15.8231 26.8399C15.5891 27.1309 15.4499 27.466 15.393 27.8392H19.997C19.9717 27.5103 19.8705 27.1941 19.6935 26.8969C19.5101 26.5996 19.2571 26.3593 18.9282 26.1822C18.5994 25.9988 18.2136 25.9103 17.7709 25.9103C17.3851 25.9103 17.0246 25.9925 16.6831 26.1569Z" fill="#222323"/>
<path d="M28.5981 32.6899L26.5364 29.8376L24.4747 32.6899H22.1348L25.2336 28.5159L22.2802 24.4431H24.5569L26.5364 27.2131L28.5159 24.4431H30.7926L27.8392 28.5159L30.9381 32.6899H28.5981Z" fill="#222323"/>
<path d="M40.2032 30.8558C39.849 31.5072 39.3747 32.0005 38.7739 32.342C38.1731 32.6835 37.5217 32.8543 36.8197 32.8543C36.3454 32.8543 35.9091 32.7847 35.5106 32.6392C35.1122 32.4938 34.7644 32.3041 34.4798 32.0637C34.1952 31.8234 33.9865 31.5515 33.8537 31.2542V32.6898H31.9248V20.6865H33.8537V25.8913C34.1383 25.4043 34.5241 25.0186 35.0173 24.7213C35.5043 24.4241 36.1114 24.2786 36.8261 24.2786C37.5407 24.2786 38.1668 24.4557 38.7613 24.8035C39.3621 25.1577 39.8364 25.6573 40.1969 26.315C40.551 26.9664 40.7344 27.7253 40.7344 28.5854C40.7344 29.4455 40.5574 30.2107 40.2095 30.8621L40.2032 30.8558ZM34.2078 29.8503C34.4229 30.2234 34.7138 30.5206 35.0932 30.7357C35.4664 30.9507 35.8838 31.0582 36.3454 31.0582C36.8071 31.0582 37.2245 30.9507 37.5913 30.742C37.9581 30.5333 38.2427 30.2424 38.4514 29.8692C38.6538 29.4961 38.755 29.0661 38.755 28.5854C38.755 28.1048 38.6538 27.6684 38.4514 27.289C38.249 26.9095 37.9644 26.6123 37.5913 26.3972C37.2245 26.1822 36.8071 26.0747 36.3454 26.0747C35.8838 26.0747 35.4664 26.1822 35.0932 26.3972C34.7201 26.6123 34.4229 26.9095 34.2078 27.289C33.9928 27.6684 33.8853 28.0985 33.8853 28.5854C33.8853 29.0724 33.9928 29.4835 34.2078 29.8566V29.8503Z" fill="#222323"/>
<path d="M44.0606 24.4431V32.6899H42.1001V24.4431H44.0606Z" fill="#222323"/>
<path d="M46.0023 24.5759C46.23 24.5316 46.4134 24.4241 46.5525 24.247C46.698 24.0699 46.7675 23.7917 46.7675 23.4059V22.4193H48.4498V24.4494H50.7265V26.1506H48.4498V29.9578C48.4498 30.3119 48.5193 30.5523 48.6648 30.6851C48.8102 30.8179 49.0316 30.8811 49.3415 30.8811H50.6632V32.6962H49.0822C48.4561 32.6962 47.9565 32.6076 47.5833 32.4242C47.2102 32.2408 46.932 31.9562 46.7612 31.5578C46.5841 31.1594 46.4956 30.6408 46.4956 29.9894V26.1443H45.041V24.6455C45.4584 24.6455 45.7809 24.6265 46.0086 24.5822L46.0023 24.5759Z" fill="#222323"/>
<path d="M43.0803 23.0834C43.7788 23.0834 44.3451 22.5171 44.3451 21.8185C44.3451 21.12 43.7788 20.5537 43.0803 20.5537C42.3817 20.5537 41.8154 21.12 41.8154 21.8185C41.8154 22.5171 42.3817 23.0834 43.0803 23.0834Z" fill="#222323"/>
<path d="M54.5339 23.0834C55.2324 23.0834 55.7987 22.5171 55.7987 21.8185C55.7987 21.12 55.2324 20.5537 54.5339 20.5537C53.8353 20.5537 53.269 21.12 53.269 21.8185C53.269 22.5171 53.8353 23.0834 54.5339 23.0834Z" fill="#222323"/>
</svg>
