<svg width="222" height="53" viewBox="0 0 222 53" fill="none" xmlns="http://www.w3.org/2000/svg">
<path d="M8.44733 16.739V22.5611C10.956 18.2098 14.8356 16.0286 20.0915 16.0286C22.5503 16.0286 24.8369 16.5614 26.9404 17.627C29.0439 18.6926 30.7367 20.3355 32.0188 22.5611C33.2954 24.7867 33.9336 27.5063 33.9336 30.7254V52.2378H25.4863V33.2118C25.4863 30.4201 24.8702 28.1612 23.6381 26.4351C22.406 24.709 20.4412 23.8432 17.7438 23.8432C15.99 23.8432 14.4082 24.2483 12.9874 25.0476C11.5665 25.8523 10.4565 27.0345 9.65171 28.5997C8.84694 30.1592 8.44733 32.0574 8.44733 34.2775V52.2378H0V16.739H8.44733Z" fill="white"/>
<path d="M49.0304 50.6393C46.1666 49.1019 43.8688 46.9152 42.1427 44.0735C40.4166 41.2318 39.5508 37.9905 39.5508 34.3496C39.5508 30.7087 40.4277 27.4896 42.176 24.6924C43.9243 21.9006 46.2332 19.7583 49.097 18.2653C51.9609 16.7723 55.0468 16.0286 58.3602 16.0286C61.6737 16.0286 64.7707 16.7612 67.518 18.2264C70.2598 19.6917 72.4188 21.7175 73.9784 24.2983C75.538 26.8791 76.3205 29.7763 76.3205 32.9954C76.3205 33.6114 76.2872 34.2608 76.2151 34.949C76.1429 35.6372 76.0597 36.2644 75.9653 36.8305H48.3478C48.6808 38.3901 49.319 39.7999 50.2626 41.0542C51.2061 42.3085 52.4271 43.302 53.9201 44.0346C55.4131 44.7672 57.0782 45.1336 58.9264 45.1336C61.1964 45.1336 63.1611 44.6951 64.8206 43.8182C66.4746 42.9412 67.8732 41.5815 69.011 39.7388L75.1883 44.7062C73.0126 47.7366 70.5761 49.8678 67.8788 51.0944C65.1814 52.3265 61.9845 52.9426 58.2936 52.9426C54.9802 52.9426 51.8943 52.1767 49.0304 50.6338V50.6393ZM53.6815 24.1207C52.2162 24.8311 50.9841 25.8135 49.9906 27.0678C48.9971 28.3221 48.3811 29.7541 48.1424 31.3636H67.9509C67.8566 29.9428 67.4181 28.5941 66.6355 27.3176C65.8529 26.041 64.754 25.0087 63.3332 24.2317C61.9123 23.4491 60.2584 23.0606 58.3658 23.0606C56.7063 23.0606 55.1467 23.4158 53.6815 24.1262V24.1207Z" fill="white"/>
<path d="M104.972 52.2374L96.0973 39.9549L87.2226 52.2374H77.1436L90.4917 34.2771L77.7818 16.7441H87.5778L96.0973 28.6714L104.617 16.7441H114.413L101.703 34.2771L115.051 52.2374H104.972Z" fill="white"/>
<path d="M154.909 44.3566C153.393 47.1483 151.345 49.2795 148.77 50.7448C146.189 52.21 143.386 52.9482 140.356 52.9482C138.319 52.9482 136.438 52.6374 134.712 52.0269C132.985 51.4108 131.504 50.5838 130.277 49.5404C129.045 48.497 128.146 47.3425 127.58 46.0604V52.2378H119.271V0.58252H127.58V22.9885C128.812 20.9072 130.477 19.2255 132.586 17.9489C134.689 16.6724 137.281 16.0341 140.362 16.0341C143.442 16.0341 146.123 16.7945 148.703 18.3041C151.284 19.8193 153.343 21.9839 154.881 24.7978C156.418 27.6173 157.19 30.8697 157.19 34.5605C157.19 38.2514 156.435 41.5648 154.92 44.3566H154.909ZM129.106 40.0274C130.027 41.637 131.293 42.9024 132.902 43.8237C134.512 44.7451 136.31 45.2057 138.297 45.2057C140.284 45.2057 142.071 44.7562 143.658 43.857C145.246 42.9579 146.472 41.7036 147.349 40.094C148.226 38.4845 148.665 36.6418 148.665 34.555C148.665 32.4681 148.226 30.6144 147.349 28.9826C146.472 27.3509 145.24 26.0744 143.658 25.1475C142.071 24.2262 140.284 23.7655 138.297 23.7655C136.31 23.7655 134.512 24.2262 132.902 25.1475C131.293 26.0688 130.027 27.3509 129.106 28.9826C128.185 30.6144 127.724 32.4737 127.724 34.555C127.724 36.6363 128.185 38.4123 129.106 40.0219V40.0274Z" fill="white"/>
<path d="M171.515 16.7395V52.2327H163.067V16.7395H171.515Z" fill="white"/>
<path d="M179.885 17.3107C180.857 17.122 181.65 16.6502 182.261 15.8898C182.877 15.135 183.182 13.9251 183.182 12.2711V8.01416H190.425V16.7445H200.221V24.0541H190.425V40.4548C190.425 41.97 190.73 43.0079 191.347 43.5795C191.963 44.1456 192.934 44.4342 194.255 44.4342H199.933V52.2433H193.117C190.42 52.2433 188.266 51.8548 186.657 51.0722C185.047 50.2896 183.865 49.0464 183.105 47.3481C182.35 45.6442 181.967 43.3964 181.967 40.6046V24.0652H175.717V17.6048C177.516 17.6048 178.898 17.5105 179.869 17.3218L179.885 17.3107Z" fill="white"/>
<path d="M167.294 10.8894C170.301 10.8894 172.739 8.45172 172.739 5.4447C172.739 2.43767 170.301 0 167.294 0C164.287 0 161.85 2.43767 161.85 5.4447C161.85 8.45172 164.287 10.8894 167.294 10.8894Z" fill="white"/>
<path d="M216.558 10.8894C219.565 10.8894 222.003 8.45172 222.003 5.4447C222.003 2.43767 219.565 0 216.558 0C213.551 0 211.113 2.43767 211.113 5.4447C211.113 8.45172 213.551 10.8894 216.558 10.8894Z" fill="white"/>
</svg>
