<svg width="144" height="35" viewBox="0 0 144 35" fill="none" xmlns="http://www.w3.org/2000/svg">
<path d="M5.47935 10.8577V14.6342C7.10659 11.8117 9.62306 10.3969 13.0324 10.3969C14.6272 10.3969 16.1104 10.7425 17.4749 11.4337C18.8393 12.1249 19.9373 13.1905 20.769 14.6342C21.597 16.0778 22.011 17.8419 22.011 19.9299V33.8839H16.5316V21.5428C16.5316 19.7319 16.132 18.2667 15.3328 17.147C14.5336 16.0274 13.2592 15.4658 11.5095 15.4658C10.3719 15.4658 9.34585 15.7286 8.42423 16.247C7.5026 16.769 6.78259 17.5358 6.26057 18.5511C5.73856 19.5627 5.47935 20.7939 5.47935 22.234V33.8839H0V10.8577H5.47935Z" fill="#151514"/>
<path d="M31.8038 32.8471C29.9461 31.8498 28.4557 30.4314 27.336 28.5881C26.2164 26.7449 25.6548 24.6424 25.6548 22.2808C25.6548 19.9191 26.2236 17.8311 27.3576 16.0166C28.4917 14.2058 29.9893 12.8161 31.847 11.8477C33.7046 10.8793 35.7063 10.3969 37.8555 10.3969C40.0048 10.3969 42.0136 10.8721 43.7957 11.8225C45.5741 12.7729 46.9746 14.087 47.9862 15.761C48.9978 17.435 49.5054 19.3143 49.5054 21.4024C49.5054 21.802 49.4838 22.2232 49.437 22.6696C49.3902 23.116 49.3362 23.5228 49.275 23.89H31.3609C31.5769 24.9016 31.991 25.8161 32.603 26.6297C33.215 27.4433 34.007 28.0877 34.9754 28.5629C35.9439 29.0382 37.0239 29.2758 38.2227 29.2758C39.6952 29.2758 40.9696 28.9914 42.046 28.4225C43.1189 27.8537 44.0261 26.9717 44.7641 25.7765L48.771 28.9986C47.3598 30.9642 45.7793 32.3466 44.0297 33.1423C42.28 33.9415 40.2064 34.3411 37.8123 34.3411C35.6631 34.3411 33.6614 33.8443 31.8038 32.8435V32.8471ZM34.8206 15.6458C33.8702 16.1066 33.071 16.7438 32.4266 17.5574C31.7822 18.3711 31.3825 19.2999 31.2277 20.3439H44.0765C44.0153 19.4223 43.7309 18.5475 43.2233 17.7195C42.7156 16.8914 42.0028 16.2218 41.0812 15.7178C40.1596 15.2102 39.0868 14.9582 37.8591 14.9582C36.7827 14.9582 35.7711 15.1886 34.8206 15.6494V15.6458Z" fill="#151514"/>
<path d="M68.09 33.8835L62.3334 25.9165L56.5768 33.8835H50.0391L58.6973 22.2336L50.4531 10.8609H56.8072L62.3334 18.5975L67.8595 10.8609H74.2137L65.9695 22.2336L74.6277 33.8835H68.09Z" fill="#151514"/>
<path d="M100.481 28.7719C99.4981 30.5827 98.1697 31.9652 96.4993 32.9156C94.8252 33.866 93.0072 34.3448 91.0415 34.3448C89.7203 34.3448 88.4999 34.1432 87.3802 33.7472C86.2606 33.3476 85.2994 32.8112 84.5037 32.1344C83.7045 31.4576 83.1213 30.7087 82.7541 29.8771V33.884H77.3647V0.37793H82.7541V14.9115C83.5533 13.5615 84.6333 12.4707 86.0014 11.6426C87.3658 10.8146 89.0471 10.4006 91.0451 10.4006C93.0432 10.4006 94.782 10.8938 96.4561 11.873C98.1301 12.8559 99.4657 14.2599 100.463 16.0852C101.46 17.914 101.961 20.0237 101.961 22.4177C101.961 24.8118 101.471 26.961 100.488 28.7719H100.481ZM83.7441 25.9638C84.3417 27.0079 85.1626 27.8287 86.2066 28.4263C87.2506 29.0239 88.417 29.3227 89.7059 29.3227C90.9947 29.3227 92.1539 29.0311 93.1836 28.4479C94.2132 27.8647 95.0088 27.0511 95.5776 26.007C96.1465 24.963 96.4309 23.7678 96.4309 22.4141C96.4309 21.0605 96.1465 19.8581 95.5776 18.7996C95.0088 17.7412 94.2096 16.9132 93.1836 16.312C92.1539 15.7143 90.9947 15.4155 89.7059 15.4155C88.417 15.4155 87.2506 15.7143 86.2066 16.312C85.1626 16.9096 84.3417 17.7412 83.7441 18.7996C83.1465 19.8581 82.8477 21.0641 82.8477 22.4141C82.8477 23.7642 83.1465 24.9162 83.7441 25.9602V25.9638Z" fill="#151514"/>
<path d="M111.253 10.858V33.8806H105.773V10.858H111.253Z" fill="#151514"/>
<path d="M116.683 11.2286C117.313 11.1062 117.828 10.8002 118.224 10.307C118.623 9.81735 118.821 9.03253 118.821 7.9597V5.19843H123.519V10.8614H129.873V15.6027H123.519V26.241C123.519 27.2238 123.717 27.897 124.117 28.2678C124.516 28.6351 125.147 28.8223 126.003 28.8223H129.686V33.8876H125.265C123.516 33.8876 122.119 33.6356 121.075 33.128C120.031 32.6204 119.264 31.8139 118.771 30.7123C118.281 29.6071 118.033 28.149 118.033 26.3382V15.6099H113.979V11.4194C115.145 11.4194 116.042 11.3582 116.672 11.2358L116.683 11.2286Z" fill="#151514"/>
<path d="M108.515 7.06339C110.466 7.06339 112.047 5.4822 112.047 3.5317C112.047 1.58119 110.466 0 108.515 0C106.565 0 104.983 1.58119 104.983 3.5317C104.983 5.4822 106.565 7.06339 108.515 7.06339Z" fill="#151514"/>
<path d="M140.47 7.06339C142.421 7.06339 144.002 5.4822 144.002 3.5317C144.002 1.58119 142.421 0 140.47 0C138.52 0 136.938 1.58119 136.938 3.5317C136.938 5.4822 138.52 7.06339 140.47 7.06339Z" fill="#151514"/>
</svg>
