<svg width="20" height="20" viewBox="0 0 20 20" fill="none" xmlns="http://www.w3.org/2000/svg">
<path fill-rule="evenodd" clip-rule="evenodd" d="M9.75 19.5C15.135 19.5 19.5 15.135 19.5 9.75C19.5 4.365 15.135 -3.816e-07 9.75 -8.52372e-07C4.365 -1.32314e-06 1.32314e-06 4.365 8.52372e-07 9.75C3.816e-07 15.135 4.365 19.5 9.75 19.5ZM9.22 14.03C9.36063 14.1704 9.55125 14.2493 9.75 14.2493C9.94875 14.2493 10.1394 14.1704 10.28 14.03L13.28 11.03C13.3537 10.9613 13.4128 10.8785 13.4538 10.7865C13.4948 10.6945 13.5168 10.5952 13.5186 10.4945C13.5204 10.3938 13.5018 10.2938 13.4641 10.2004C13.4264 10.107 13.3703 10.0222 13.299 9.95096C13.2278 9.87974 13.143 9.8236 13.0496 9.78588C12.9562 9.74816 12.8562 9.72963 12.7555 9.73141C12.6548 9.73318 12.5555 9.75523 12.4635 9.79622C12.3715 9.83721 12.2887 9.89631 12.22 9.97L10.5 11.69L10.5 6C10.5 5.80109 10.421 5.61032 10.2803 5.46967C10.1397 5.32902 9.94891 5.25 9.75 5.25C9.55109 5.25 9.36032 5.32902 9.21967 5.46967C9.07902 5.61032 9 5.80109 9 6L9 11.69L7.28 9.97C7.21134 9.89631 7.12854 9.83721 7.03654 9.79622C6.94454 9.75523 6.84523 9.73318 6.74452 9.73141C6.64382 9.72963 6.54379 9.74816 6.4504 9.78588C6.35701 9.8236 6.27218 9.87974 6.20096 9.95096C6.12974 10.0222 6.0736 10.107 6.03588 10.2004C5.99816 10.2938 5.97963 10.3938 5.98141 10.4945C5.98319 10.5952 6.00523 10.6945 6.04622 10.7865C6.08721 10.8785 6.14631 10.9613 6.22 11.03L9.22 14.03Z" fill="#0F121A"/>
</svg>
