<svg width="20" height="20" viewBox="0 0 20 20" fill="none" xmlns="http://www.w3.org/2000/svg">
<path fill-rule="evenodd" clip-rule="evenodd" d="M9.75 0C4.365 0 0 4.365 0 9.75C0 15.135 4.365 19.5 9.75 19.5C15.135 19.5 19.5 15.135 19.5 9.75C19.5 4.365 15.135 0 9.75 0ZM10.28 5.47C10.1394 5.32955 9.94875 5.25066 9.75 5.25066C9.55125 5.25066 9.36063 5.32955 9.22 5.47L6.22 8.47C6.14631 8.53866 6.08721 8.62146 6.04622 8.71346C6.00523 8.80546 5.98318 8.90477 5.98141 9.00548C5.97963 9.10618 5.99816 9.20621 6.03588 9.2996C6.0736 9.39299 6.12974 9.47782 6.20096 9.54904C6.27218 9.62026 6.35701 9.6764 6.4504 9.71412C6.54379 9.75184 6.64382 9.77037 6.74452 9.76859C6.84522 9.76682 6.94454 9.74477 7.03654 9.70378C7.12854 9.66279 7.21134 9.60369 7.28 9.53L9 7.81V13.5C9 13.6989 9.07902 13.8897 9.21967 14.0303C9.36032 14.171 9.55109 14.25 9.75 14.25C9.94891 14.25 10.1397 14.171 10.2803 14.0303C10.421 13.8897 10.5 13.6989 10.5 13.5V7.81L12.22 9.53C12.2887 9.60369 12.3715 9.66279 12.4635 9.70378C12.5555 9.74477 12.6548 9.76682 12.7555 9.76859C12.8562 9.77037 12.9562 9.75184 13.0496 9.71412C13.143 9.6764 13.2278 9.62026 13.299 9.54904C13.3703 9.47782 13.4264 9.39299 13.4641 9.2996C13.5018 9.20621 13.5204 9.10618 13.5186 9.00548C13.5168 8.90477 13.4948 8.80546 13.4538 8.71346C13.4128 8.62146 13.3537 8.53866 13.28 8.47L10.28 5.47Z" fill="#0F121A"/>
</svg>
