<?xml version="1.0" encoding="UTF-8"?>
<svg id="Layer_1" xmlns="http://www.w3.org/2000/svg" version="1.1" viewBox="0 0 250 250">
  <!-- Generator: Adobe Illustrator 30.3.0, SVG Export Plug-In . SVG Version: 2.1.3 Build 182)  -->
  <defs>
    <style>
      .st0 {
        fill: #fff;
      }

      .st1 {
        fill: #218fcf;
      }
    </style>
  </defs>
  <circle class="st0" cx="125" cy="125" r="125"/>
  <g>
    <path class="st1" d="M119.1,12.8c62-3.2,114.8,44.4,118,106.3,3.2,62-44.4,114.8-106.4,118-61.9,3.2-114.8-44.4-118-106.4C9.6,68.9,57.2,16.1,119.1,12.8Z"/>
    <path class="st0" d="M122.9,28.5c53.2-1.1,97.3,41.1,98.5,94.3,1.1,53.2-41.1,97.3-94.4,98.4-53.2,1.1-97.3-41.1-98.4-94.3-1.1-53.2,41.1-97.3,94.3-98.4Z"/>
    <path class="st1" d="M86.6,58c3.3-.3,6.6.6,9.3,2.5,3.2,2.2,9.7,10.3,12.6,13.7l14.7,17.3c5.3,6.3,9.3,12.2,16.3,2.8,1-1.3,2.6-3.1,3.7-4.4l16.3-19.3c2.9-3.5,5.8-7.1,8.8-10.4.6-.6,1.4-1.5,2.2-1.8.7-.2,1.4-.3,2.1-.4,1.9-.1,15.5-.2,16.2.3.2.1.2.3.3.5-.3,1.2-6.2,7.9-7.4,9.3l-13.6,16-12.9,15.2c-1.9,2.3-3.8,4.5-5.8,6.8-4.5,5.3-9.3,10.4-16.8,10.6-7.8.2-12.3-4.7-17-10.2l-6-7-15-17.6c-1.5-1.8-4.5-5.9-6.8-6.2-.9-.1-1.9.2-2.6.8-1.3,1.1-2.7,3.1-3.8,4.5-1.4,1.6-4.1,4-4.1,6.2,0,4.9,5.7,4,9,5.3,6.9,2.7,11.1,9.2,15.8,14.7l20.3,23.8c6.6,7.8,10.6,14.3,18.9,3.2,1.1-1.4,2.6-3.2,3.8-4.6l19.4-23.1c3.4-4.1,6.9-8.2,10.3-12.3,1.1-1.2,2.7-2.4,4.4-2.2,3.2.4,13.3-.6,15.7.3v.3c-.4,1.2-4.7,6-5.8,7.3l-12.2,14.5-21.4,25.5c-3.8,4.5-7.7,9.1-11.5,13.5-4.8,5.7-14.5,6-20.5,2-3.3-2.2-7.1-7.3-9.9-10.5l-20.5-24.2c-3-3.5-7.8-9.6-10.9-12.6-2.1-2.1-4.5-3.9-7.2-5.3-7.9-4.2-17.1-4-25.4-1-1.5.5-5,2.8-5.7.1-.2-.6.2-1.2.6-1.7,2.5-2.9,4.9-5.9,7.4-8.8l13.6-16.1c1.9-2.3,3.9-4.6,5.8-6.9,4.6-5.5,7.4-9.7,15.1-10.6Z"/>
    <g>
      <path class="st1" d="M76.5,162.4c4.7-.2,10.1,0,14.9,0v7.6c0,2.1-.6,5.7,2.4,5.8,3,.2,6.2,0,9.2,0,0,4.4,0,9,0,13.4-4.7-1.1-8.3.4-11.1,4.2-1.8,2.7-1.9,5.1-1.3,8.2-2.7,0-5.4,0-8.2,0-2.1,0-8.4.6-8.6-2.6-.4-4.6-.2-10.7-.2-15.4v-11.6c0-2.1,0-4.3,0-6.4,0-1.9,1.2-2.8,3-3.2Z"/>
      <path class="st0" d="M82.4,165.9c.8,0,1.6,0,2.4,0,0,.9,0,1.9,0,2.8,1.3.4,3.7,2,2.8,3.6-.5.3-.7.3-1.4.2-1.5-.2-1.2-2.5-3.2-2-3.1.8-1.6,2.7.7,2.9,1.4.1,4.2,1.2,4.5,2.7.7,2.9-1.1,4.1-3.5,4.8,0,.9.2,1.5,0,2.4-.3.4-.1.3-.8.3-.7,0-.9.1-1.5-.2-.4-.6-.2-1.8-.2-2.6-2.4-.8-3.2-1.6-3.7-4,.8,0,1.4,0,2.2,0,1.1,2,3,3.1,5.1,1.1.3-.3.3-.5.3-.8-1.4-2-6.3-1.1-7.2-4-.7-2.6,1.3-3.8,3.4-4.4,0-1,0-1.8,0-2.8Z"/>
      <path class="st0" d="M78.9,185.4c4.5,0,9.6,0,14.1,0,0,1,0,1.9,0,2.9-3.9.2-10.1.1-14.1,0,0-1,0-1.9,0-2.9Z"/>
      <path class="st0" d="M79,190.8c3.1-.1,7.2,0,10.3,0,0,1,0,2,0,2.9-3.1,0-7.3,0-10.4,0,0-.7-.1-2.2.1-2.9Z"/>
      <path class="st1" d="M170.3,174.5h5.8c-2,3.4-4.7,7.4-6.9,10.7,2.1,3.6,5.1,7.4,7.4,11v.2c0,0-.4,0-.4,0h-5.8s-4.7-7.4-4.7-7.4c-1.5,2.5-3.1,5-4.7,7.5h-6.3c2.5-3.7,5.1-7.5,7.6-11.2l-6.9-10.7h6.1c1.3,2.3,2.9,4.8,4.3,7.1l4.6-7.1Z"/>
      <path class="st1" d="M132.7,174.5h6c1.6,5.5,3.4,11,5,16.5,1.5-5.4,3.3-11.1,5-16.5h6c-.6,1.3-1.1,2.7-1.6,4-2.3,6-4.6,11.9-6.9,17.9h-5.3c-.3-1.1-.8-2.3-1.2-3.4-2.4-6.1-4.5-12.6-7.1-18.5Z"/>
      <path class="st1" d="M122.8,174.3c2.8-.4,5.8.5,8.2,2,0,1.7,0,3.5,0,5.2-1.5-1.5-2.9-2.5-5-2.9-5-.9-8.7,2.2-8.2,7.4.7,7.1,7.4,8,12.2,4.1l1-.9v5.1c-1.7,1.3-3,1.7-5.3,2.1-10.8,1.9-17.4-9.6-11.1-18.2,1.8-2.4,5-3.7,8.1-4Z"/>
      <path class="st1" d="M99,191.6c4-.7,7.8,2.1,8.4,6.1.6,4-2.1,7.8-6.1,8.4-4,.6-7.8-2.1-8.4-6.1-.6-4,2.1-7.8,6.1-8.4Z"/>
      <path class="st0" d="M103.3,195.3c.6.2,1.4,1.2,1.9,1.7-1.9,2.1-4.6,4.8-6.7,6.8l-2-1.9c-.7-.7-1.3-1.3-2-2l1.8-1.7c.7.6,1.5,1.3,2.1,2,1.6-1.6,3.2-3.2,4.8-4.8Z"/>
      <path class="st1" d="M94.1,162c.9.6,7.6,9.6,8.8,11.1-2.9,0-5.9,0-8.8,0v-11.1Z"/>
    </g>
  </g>
</svg>