<?xml version="1.0" encoding="UTF-8"?>
<svg id="Layer_1" xmlns="http://www.w3.org/2000/svg" version="1.1" viewBox="0 0 250 250">
  <!-- Generator: Adobe Illustrator 30.3.0, SVG Export Plug-In . SVG Version: 2.1.3 Build 182)  -->
  <defs>
    <style>
      .st0 {
        fill: #df454a;
      }

      .st1 {
        fill: #2c88c4;
      }

      .st2 {
        fill: #fff;
      }

      .st3 {
        fill: #015490;
      }

      .st4 {
        fill: #fede55;
      }
    </style>
  </defs>
  <path class="st3" d="M120,.1c69-2.7,127.1,50.9,129.9,119.9,2.8,68.9-50.8,127.1-119.8,129.9C61.1,252.7,2.9,199.1.1,130-2.7,61,51,2.8,120,.1Z"/>
  <path class="st0" d="M127.8,10.4c2.3.3,4.8.4,7.1.6,3.4.3,6.8.7,10.1,1.3,22,3.7,42.4,13.7,58.8,28.8,22.4,20.8,35.6,49.7,36.6,80.3,1,30.2-10,59.6-30.7,81.6-21.3,22.7-50.8,35.9-81.9,36.8v-1.4s0-72,0-72c1.3-.1,2.7-.3,4-.4,21.9-2.6,38.1-21.6,38-43.6,0-8.4-2-15.3-5.5-23-1.1.6-2.2,1.3-3.2,1.9-5.9,3.8-12.1,7.4-18,11.3.8,2.5,1.3,4.6,1.5,7.2.8,10.4-6.7,18.2-16.9,18.9,0-6.9.2-14.5,0-21.3l31.4-26.7c-1.4-1.3-2.9-2.8-4.4-4-9.1-7.9-17.7-16.7-26.9-24.5V10.4Z"/>
  <path class="st4" d="M206.6,84.7c5.5,0,11.1,0,16.6,0l-16.9,35.1c4.2.1,8.8,0,13,0v11.9c-5.9,0-12,0-18,0v5.3h18v11.6c-6,0-12,0-18,0,0,4.6,0,9.2.1,13.9-5,0-10,0-15,0,0-4.7,0-9.4,0-14h-14.3s-2.4,0-2.4,0v-11.4c5.6,0,11.2,0,16.8,0v-5.3c-4.7-.1-9.7,0-14.5,0,0-3.9.1-7.8.3-11.7,3.2,0,6.4,0,9.6,0l-16.8-35.2h16.9c1.3,2.9,2.6,6.1,3.8,9.1l8.3,20.2c.9-2.7,3.5-8.5,4.7-11.3,2.5-5.8,5-12.4,7.7-18.1Z"/>
  <path class="st1" d="M121.4,10.5c.3.3.2,20,.2,22v43.4c-6.9.7-13.4,2.1-19.5,5.5-23.2,12.8-29.1,41.3-17.2,63.9,7.6-5.2,15.1-10.5,22.6-15.8-1.2-5.7-1.9-11.6,1.3-16.8,2.6-4.3,8-7.4,12.8-8.5.2,6.9,0,14.3,0,21.3-.8.8-2.3,2-3.2,2.8l-6,5.1-13.8,11.8c-2.9,2.5-6,4.9-8.8,7.4,2.1,1.9,4.5,3.9,6.7,5.8l14.8,13c3.4,3,7,6,10.3,9v54.6s0,4.7,0,4.7c-27.3-.6-53.9-12-74.1-30.1-18.2-16.2-30.7-37.9-35.6-61.7-1.2-6.2-1.8-12.6-2.1-18.9-1.5-28.1,9.7-58.9,28.4-79.8C60.1,24.6,88.8,12.3,121.4,10.5Z"/>
  <path class="st2" d="M51.6,76.9h8.6c0,2.3,0,4.6,0,7,3.5.4,6.9,1.7,9.8,3.8,5.3,3.8,7.1,8.7,8.2,14.9h-12.2c-.9-4-1.8-5.8-5.8-7.4v19.5c3.9,1.6,8.4,3.3,11.9,5.7,9,6,9.6,19.8,3.7,28.2-3.7,5.2-9.3,7.6-15.4,8.7,0,2.7,0,5.6,0,8.3h-7.7c-.5,0-.5,0-.9-.2-.2-1.1,0-6.5,0-8-4-.3-8.9-2-12.1-4.5-6.1-4.7-8.1-10.2-9.2-17.5h14.1c.7,5.2,2.1,8.4,7.1,10.6v-19.8c-4-1.1-9.6-4.1-12.9-6.6-8.6-6.3-9.4-20.1-2.9-28.2,4.1-5,9.5-6.9,15.8-7.6v-6.9Z"/>
  <path class="st1" d="M51.2,95.1h.3c.3.4.1,14.5.1,16.2-1.7-.7-2.6-1.3-4.1-2.3-4.9-4.6-2.9-12.2,3.6-13.8Z"/>
  <path class="st1" d="M60.3,129.4c6.2,2.2,9.1,8.1,4.6,13.7-1.7,1.5-2.5,1.8-4.6,2.5v-16.2Z"/>
  <path class="st2" d="M127.8,69.6c.6.5,1.4,1.2,1.9,1.8,6.9,6.5,14.1,12.8,21,19.3-2.3,2.1-5.6,4.8-8,6.9l-14.9,12.9v-12.5c-7.8.1-14.2,1.8-20,7.4-4.4,4.2-6.1,8.7-6.5,14.7-.1,2.3.1,4.6.5,6.9-1.5,1-3.5,2.6-5,3.7l-9.5,7.1c-5.5-16.3-3.8-32.6,8.9-45.2,8.9-8.8,19.5-11.6,31.7-11.5,0-3.8,0-7.6,0-11.3Z"/>
  <path class="st1" d="M132.1,80.1c.9.7,3,2.8,3.9,3.7l7,6.7c-3.6,3.2-7.3,6.3-10.9,9.5v-6.7c-9.8-.3-18.7.8-26.4,7.5-5.3,4.6-8.8,11.9-9.2,18.9-.1,1.9,0,3.6,0,5.4l-6.7,4.8c-.6-4.1-1-6.7-.7-11,.5-9.3,4.8-17.9,11.8-24,8.7-7.6,20-9.3,31.1-8.5v-6.2Z"/>
  <path class="st2" d="M161.7,107.3c.2.3.6,1.4.7,1.8,1.4,4.5,2.1,9.5,2,14.3-.2,10.4-4.5,20.3-12,27.6-8.6,8.2-19.1,10.7-30.6,10.5v12c-5.2-5-11.9-10.7-17.4-15.5-1.9-1.6-4-3.6-5.8-5.3,7.7-6.5,15.5-13.4,23.2-20.1v12c3.6,0,7,0,10.5-.7,6-1.3,11.2-5,14.4-10.2,3.5-5.6,4-12.1,2.6-18.5,4.1-2.5,8.3-5.3,12.4-7.8Z"/>
  <path class="st1" d="M158.9,115.1c.8.9.8,9.2.7,10.7-.7,8.9-4.9,17.1-11.7,22.9-8.8,7.5-19.4,8.8-30.5,7.9,0,2.1,0,4.2,0,6.3-2.8-2.4-6.2-5.7-9-8.3l-2.4-2.3c3.7-3.3,7.6-6.6,11.4-9.9,0,2.2,0,4.4,0,6.6,4,.2,7.8.3,11.8,0,12.5-1.1,23.8-10.5,25.4-23.3.4-2.9.2-4.9,0-7.8l4.3-2.8Z"/>
</svg>