<?xml version="1.0" encoding="UTF-8"?>
<svg id="Layer_1" xmlns="http://www.w3.org/2000/svg" version="1.1" viewBox="0 0 250 250">
  <!-- Generator: Adobe Illustrator 30.3.0, SVG Export Plug-In . SVG Version: 2.1.3 Build 182)  -->
  <defs>
    <style>
      .st0 {
        fill: #462e1c;
      }

      .st1 {
        fill: #fff;
      }
    </style>
  </defs>
  <circle class="st0" cx="125" cy="125" r="125"/>
  <g>
    <path class="st1" d="M199.8,67.5h.1c0,.9-.5,2.7-.7,3.6l-1.3,6.4c-1.5,7.9-3,15.8-4.5,23.6-2.6-3.2-5.5-6.3-8.3-9.4-1.3,1.8-4.3,5-5.9,6.7l-11.7,12.8-39.4,43.1c-7.1-7.2-14.9-14.5-21.7-22-.9,1.2-3.7,4.1-4.9,5.4l-9.7,10.4c-8.8,9.4-17.7,19.4-26.7,28.7-3.9-.3-10.4-.1-14.6-.1-.4,0-.4,0-.8-.1,0-.7,4.9-5.6,5.6-6.4l10.8-11.7,40-43c1.8,1.6,5.9,6.2,7.8,8.1,4.5,4.7,9.1,9.2,13.8,13.7l49.4-54c-2.5-2.5-6.1-5.5-8.8-7.9,9.6-1.4,21.8-5.4,31.3-8Z"/>
    <path class="st1" d="M114.3,54.2c.2,0,0,0,.3,0,0,.7-1.3,3.3-1.6,4.2-.8,2.5-1.5,5.1-1.9,7.7-2,12.2-1.2,24.6,2.5,36.4,1.4,4.5,3.5,9.5,5.3,13.9-4.1-4.3-8-8.2-12.1-12.6-8.2,8.5-16.3,17.5-24.4,26.1-3.2,3.5-6.7,7-9.7,10.6-.3-4.6-1.1-8.9-1.2-13.7-.6-23.9,7-49.7,26.3-65,4.8-3.8,10.6-6.2,16.5-7.7Z"/>
    <path class="st1" d="M124.8,54.2c3.3.4,6.5,1.3,9.6,2.5,14,5.6,22.6,18.1,28.3,31.5-6,6.7-12,13.4-18.1,20-4.1,4.6-8.4,9.1-12.5,13.8-1.8-7.3-4-13.4-6.8-20.4-5.6-14-6.6-33.4-.3-47.4Z"/>
    <path class="st1" d="M106.4,143.2l20.3,19.9c.4,11.9-.9,22.1-6.8,32.7-5.5-.3-8.7-1-13.9-3-10.6-4.8-18.3-13.5-23.9-23.4,8.2-8.6,16.3-17.3,24.3-26.2Z"/>
    <path class="st1" d="M169.7,119.6c0,0,.2.3.2.4.2,16.9-2.8,34.4-11.1,49.3-7,12.6-15.3,21.2-29.4,25.3,6.9-12,9.7-25.9,7.9-39.6,3.7-3.5,8-8.6,11.5-12.4,7.1-7.6,14-15.2,20.9-22.9Z"/>
  </g>
</svg>