<?xml version="1.0" encoding="UTF-8"?>
<svg id="Layer_1" xmlns="http://www.w3.org/2000/svg" xmlns:xlink="http://www.w3.org/1999/xlink" version="1.1" viewBox="0 0 250 250">
  <!-- Generator: Adobe Illustrator 30.3.0, SVG Export Plug-In . SVG Version: 2.1.3 Build 182)  -->
  <defs>
    <style>
      .st0 {
        fill: url(#linear-gradient);
      }

      .st1 {
        fill: #2b5e0a;
      }

      .st2 {
        fill: #0a0a0a;
      }

      .st3 {
        fill: #63bd11;
      }
    </style>
    <linearGradient id="linear-gradient" x1="248.4" y1="51.7" x2="250.2" y2="53.1" gradientTransform="translate(.5 126.5) scale(.5 -.5)" gradientUnits="userSpaceOnUse">
      <stop offset="0" stop-color="#000"/>
      <stop offset="1" stop-color="#081203"/>
    </linearGradient>
  </defs>
  <circle class="st2" cx="125" cy="125" r="125"/>
  <g>
    <path class="st3" d="M94.7,56.2c2.5-.1,3.5,1.4,2.7,3.7,4.7,6.6,9.6,12.9,14.5,19.4l29.5,39.3,12.6,16.8c1.6,2.2,4.6,5.7,5.7,8,.3-17.8,0-36.1,0-54-2.1-1.3-2.3-3.3,0-4.6,0-1.9,0-4.7,0-6.7v-12.1c0-1.4-.3-6.6.4-7.6,1.8-.9,8.7-.6,11-.6h16.8c0,0,.2-.1.2-.2,2.8-2.7,6.7.4,3.2,3.3,0,12.9-.3,25.9-.1,38.8,2,1.3,1.9,3,0,4.4v44.3c0,6.8-.2,14.1-.1,20.9.7.4,1.5,1.1,1.7,1.9.3,1.4-1,1.8-1.5,2.8-.2.4-.1,1.1-.1,1.5,0,2.1.3,14.6-.5,15.5-.3.4-.8.5-1.3.6-2.6.3-5.4,0-8,0h-19.2c-1.8,2.3-4.5,2.3-4.7-.9l.6-1.4c-3.5-4.2-6.6-8.7-10.1-13-7.4-9.1-14-18.8-21.4-27.9-4.1-.7-2.4-3-2.9-3.6-9.5-11.8-18.4-23.9-28.2-35.4.2,6.2,0,12.9,0,19.1,0,9,0,18,0,27,1.8,1.8,2.1,3.2-.1,4.7-.2,7.4.1,15.3,0,22.7,0,2.2.2,6.9-.2,8.8-.8.8-4.1.6-5.2.6-9.2.2-18.5-.3-27.7,0l-.5.3c-2.7,2-5.2-.2-2.9-3.4v-41.5c-2.6-1.8-2.2-3.3,0-5-.2-7.2,0-15.9,0-23.2v-35.1c-2-1.8-2.6-3.1,0-4.6,0-6.4,0-12.9,0-19.3-2.8-2.7,0-6.1,3.4-3.3,3.6.1,7.8,0,11.4,0,6.5,0,12.9,0,19.4,0,.5-.9.7-1.1,1.7-1.6Z"/>
    <path class="st2" d="M72.7,87.8c1.6,1,6.6,6,8.3,7.6,3.9,3.7,8.6,7.5,12.4,11.2-1.8.5-4.2.8-6.1,1-5.3.7-13.7,1.7-18.9,1.9,1.4-6.9,3-14.8,4.3-21.7Z"/>
    <path class="st2" d="M93.8,112c.3.8,0,7.8,0,9.1-.3,11.3,0,22.7-.2,34-1.6-1.9-3.5-4.6-5.1-6.6-2.1-2.7-4.6-5.8-6.5-8.6,1.6-3.5,3.3-7.7,4.7-11.3,2.2-5.6,4.5-11.1,7-16.6Z"/>
    <path class="st2" d="M82.2,176c1,.9,9.7,12.9,10.8,14.7-2.1.1-5,0-7.1,0h-12.4s-11.1,0-11.1,0c.9-.6,2-1.5,2.9-2.2,5.4-4.4,11.4-8.3,16.9-12.6Z"/>
    <path class="st2" d="M188.2,173.6c.5,0,.5,0,.9.2.2.4,0,14.7,0,16-2.7.1-6.2,0-9,0h-16c-.5,0-.6.1-1.1-.1.8-1.3,21.9-13.9,25.2-16.1Z"/>
    <path class="st2" d="M98.2,64.4c.4.4,1.6,2.1,2,2.6,2,2.8,3.8,5.7,5.8,8.6,3.4,5,6.9,10.1,10.2,15.1,2.1,3.1,4.4,6.4,6.3,9.5-1.5-.4-4.1-1.4-5.7-1.9l-9.5-3.1c-2-5.6-3.2-10.2-4.8-15.8l-2.6-9.1c-.5-1.9-1.2-4-1.7-5.8Z"/>
    <path class="st2" d="M61.7,60.3c1.5,0,8.6,4.1,10.3,5l12.1,6.5c-2,2.4-4.2,5-6.2,7.4-1.7,2-3.4,4.1-5.2,6-.9-3.2-11.2-24-11-24.9Z"/>
    <path class="st2" d="M188.2,61.9c.2.9-8.5,26.1-9.7,29.5l-4-5.4c-2-2.8-4.1-5.2-5.8-8.2,1-1.1,4.9-4.2,6.3-5.3,4.5-3.5,8.8-7,13.3-10.6Z"/>
    <path class="st2" d="M162.1,59.9c2.8,0,24.4-.2,25.6.2v.2c-.6.8-2.4,2-3.3,2.7-1.8,1.4-3.5,2.9-5.3,4.3-2.3,1.8-4.6,3.6-6.8,5.4-1.1.9-3.6,3-4.7,3.6-.9-2.2-1.9-5.7-2.7-8-.8-2.4-2.2-6.1-2.8-8.5Z"/>
    <path class="st2" d="M85.3,72.5c.9.5,8.1,9,9,10.2-.3,2.8-.4,6.1-.5,8.9-2.5-.6-5.3-1.6-7.9-2.3-3.5-.8-8.1-2.4-11.6-3.5,2.8-3.7,5.9-7.2,8.9-10.8.7-.8,1.3-1.6,2.1-2.4Z"/>
    <path class="st2" d="M60.8,148.7c.9.6,9.6,11.6,10.7,13.1-2.6,6-5.1,12-7.5,18.1-1.1,2.7-2.1,5.3-3.2,8,.3-12.9,0-26.2,0-39.1Z"/>
    <path class="st2" d="M189.1,111.7c.2.7.1,4.5.1,5.4v12.4c0,0,0,35.8,0,35.8l-1.7-5.6c-.9-2.8-6.1-17.9-5.7-19.7.6-3.2,1.7-6.4,2.5-9.5,1.6-6.3,3.2-12.5,4.9-18.8Z"/>
    <path class="st2" d="M100.9,113.1c.5.3,2,1.6,2.5,2,1.7,1.3,3.3,2.7,5,4,4,3.1,8.3,6.3,12.2,9.3l6.9,5.4c1.8,1.4,3.5,2.9,5.4,4.1l-3,2.9c-1.3,1.2-3,2.9-4.7,3.3-6.6-8.8-13.5-17.5-20.4-26.1-1.3-1.7-2.8-3.3-4-5.1Z"/>
    <path class="st2" d="M90.3,108.8h1.5c-1.5,1.8-3.9,4.4-5.5,6.3-3.5,4-6.9,7.9-10.4,11.8-.6-1.3-1.2-2.6-1.8-3.9-1.7-3.8-3.6-7.8-5.3-11.6,2.1-.5,5.9-.8,8.3-1,4.5-.5,8.9-1,13.3-1.5Z"/>
    <path class="st2" d="M98.5,109.7c.7.2,1.5.5,2.2.8,6.4,2.7,12.8,5.4,19.2,8,3,1.2,5.9,2.5,8.8,3.9,2.3,3.2,3.4,10,4.7,14-1.3-.6-8.5-6.6-10.3-8l-19.2-14.8c-.9-.7-4.9-3.5-5.3-4Z"/>
    <path class="st2" d="M172.7,167.5c2.3.5,13.7,3.1,14.9,4.1v.3c-.7,1.2-14.3,9.2-16.4,10.6-3.2,1.9-6.3,3.9-9.3,6.1,3.8-7.1,7.2-14,10.9-21.1Z"/>
    <path class="st2" d="M161.5,93.3c.4.7,1.8,5.7,2.2,6.8,1.9,6.2,3.6,12.6,5.5,18.8-1.5,5.3-4,11.8-5.7,17.1-.6,1.9-1.2,3.8-1.8,5.7l-.2-48.4Z"/>
    <path class="st2" d="M189.2,64.7c.3,1.6,0,7.2,0,9,0,6,0,12,0,18.1,0,2.2,0,6.3-.2,8.3-1.6-.1-3.1-.4-4.6-.7-.4-.5-1.1-1.4-1.5-2-1.1-1.6-2.2-3.1-3.3-4.7,2.1-5.8,4.2-11.6,6.2-17.4,1.1-3.3,2.2-7.4,3.5-10.6Z"/>
    <path class="st2" d="M125.6,104.2c.4.3,3.8,4.2,4.4,4.9,8.9,9.9,17.4,20.2,25.4,30.9-1.1-.5-4.5-3.4-5.7-4.2-3.9-3-7.8-6-11.8-9-1.2-.9-6.3-4.1-6.9-4.9-.1-.2-5.1-16.5-5.4-17.7Z"/>
    <path class="st2" d="M72.5,163.6c.5.3,8.1,10.1,8.9,11.1-.5.5-1.2,1-1.7,1.4-4.4,3.1-8.7,6.3-13,9.5-1.8,1.4-3.4,2.6-5,4.2.3-1.2,1.2-3.2,1.7-4.4l3.4-8.3,3.3-8c.7-1.7,1.6-3.9,2.5-5.5Z"/>
    <path class="st2" d="M144.1,159.9c.6.1,1.4.4,2.1.6,4.3,1.2,8.6,2.3,13,3.4-.3,7.2,0,15.1-.2,22.5,0,0,0,0-.1,0-1.3-1.9-3.2-5.7-4.4-7.8-3.5-6.2-7-12.4-10.3-18.8Z"/>
    <path class="st2" d="M80.7,143.4c.4,1.7.7,5.3,1,7.2l2.8,19.7c-.6,1.1-1.5,2.3-2.3,3.4-.8-1.1-1.5-2.1-2.3-3.1-2.2-2.6-4.8-6.2-6.9-9,2.8-6.1,5.1-12.1,7.7-18.2Z"/>
    <path class="st2" d="M64.3,59.6c6.8.2,13.7,0,20.4,0,1.3,0,7.4-.1,8.4.2.5.4.3.1.5.7-.6,1-3.5,4.1-4.4,5.3-1.3,1.6-2.8,3.5-4.3,4.9-4.7-2.8-9.9-5.3-14.7-8-1.5-.8-4.7-2.3-5.9-3.1Z"/>
    <path class="st2" d="M79.3,141.7c.2,0,.2,0,.5,0,0,.4,0,.8-.2,1.1-2.8,5.6-4.9,11.6-7.4,17.3-1.5-1.8-3.1-3.7-4.5-5.6-1-1.3-5.4-6.6-5.9-7.7,0-.6.1-.6.4-1,1.4-.7,5.2-1.4,6.9-1.8,3.3-.8,6.9-1.7,10.3-2.3Z"/>
    <path class="st2" d="M67.8,112.5c.3.3,3,7,3.4,7.9,1.2,2.6,2.4,5.1,3.6,7.7-1.1,1.5-2.8,3.3-4.1,4.7-1.8,2-3.7,4.1-5.5,6.1-1.4,1.4-2.3,2.3-3.9,3.4,1.3-7.9,3.5-15.7,5.1-23.5.4-2.1.9-4.2,1.4-6.3Z"/>
    <path class="st2" d="M186.7,107.1c.4.1,1.3.5,1.7.7-.2,2-1.8,7.8-2.4,10.1-1.7,6.5-3.3,13.5-5.2,19.9l-.7-2.3c-.2-.7-.5-1.5-.7-2.2-1.1-3.9-2.5-7.9-3.4-11.8,3.3-4.7,7.3-9.6,10.8-14.3Z"/>
    <path class="st2" d="M161.2,146.9c.6.3,3.4,2.8,4,3.4,3.2,2.8,6.4,5.7,9.6,8.6l-2,4.7-.9,2c-3.6-.7-7.5-1.9-11.2-2.8,0-5.3.2-10.6.4-15.8Z"/>
    <path class="st2" d="M131.1,124c.8.3,3,2,3.8,2.5,3.7,2.7,7.4,5.4,11,8.2,3.6,2.8,7.5,5.6,11,8.4-2.2-.3-5.6-1.3-7.7-1.9-4.6-1.2-9.4-2.7-14.1-3.8-1.5-4.1-2.3-9-3.9-13.5Z"/>
    <path class="st2" d="M60.8,88c.3.5,2,7.8,2.2,8.7.7,2.9,1.4,5.7,2.1,8.6.2.9,1.4,5.1,1.3,5.8-.4,3.3-1.5,7.6-2.3,10.9-.8,3.3-1.5,6.6-2.2,10-.3,1.2-.7,3.6-1.1,4.6v-48.6Z"/>
    <path class="st2" d="M177.9,98.9c1.6.7,4.8,1.2,5.7,2.1.6.6,2.3,2.6,3,3.4-2.1,3.4-5.7,7.8-8.2,11.1l-3.1,4c-.3-1.2-1.5-7.1-1.5-7.8.2-3.3,2.9-9.5,4-12.7Z"/>
    <path class="st2" d="M172,125.8c1.3,1,6.4,11.7,7.1,13.8-3.1,1-7.5,2-10.8,2.8-1.9.5-3.8.9-5.6,1.5,2.7-5.9,6.4-12.2,9.3-18.2Z"/>
    <path class="st2" d="M179.6,141.3c.4.3-1.3,5.2-1.5,5.9l-2.9,10.1c-2.1-2-4.5-4.1-6.6-6-2.1-1.9-4.2-3.7-6.3-5.5,2.6-.8,5.8-1.5,8.5-2.2,2.7-.7,6.2-1.8,8.9-2.2Z"/>
    <path class="st2" d="M82,142.4c.5.4,2.7,3.6,3.3,4.4,2.4,3.1,4.8,6.1,7.2,9.1-.2,1.5-.4,2.2.4,3.4-1.2,1.8-2.8,3.8-4.1,5.5-1.1,1.5-2,2.8-3,4.3-1.4-7.6-2.2-15.4-3.4-23-.2-1.2-.3-2.6-.4-3.8Z"/>
    <path class="st2" d="M112.2,104.9c.5,0,.9.4,1.2.8,4.3,4.7,8.4,9.5,12.9,14-3.3-1.5-6.9-3-10.2-4.3l-10.7-4.5c-2.7-1.1-5.4-2-8-3.4,3.9-.1,10.7-1.8,14.8-2.6Z"/>
    <path class="st2" d="M93.2,109.4c0,.6-2.6,6.2-3.1,7.3-3.1,7.3-6.1,14.6-9.1,22-.4-1.2-.9-2.2-1.4-3.4l-3.2-6.8,10.6-12.1c2.1-2.4,4-4.7,6.1-7Z"/>
    <path class="st2" d="M160.8,164.4c2.1.3,8.3,2,10.4,2.7-2.2,4.5-4.5,9-6.8,13.5-1.2,2.2-2.5,4.7-3.5,7v-23.3Z"/>
    <path class="st2" d="M155.5,145.8h3.5c-.3.3-1.4,1.4-1.8,1.6-1.8,1-13.4,10.2-14.2,10.1l-.3-.5c-1.3-3.5-2.9-6.9-4.2-10.4,1.5-.2,3.8-.2,5.5-.3,3.8-.2,7.7-.4,11.5-.5Z"/>
    <path class="st2" d="M180.6,143.2c.3.4,1.5,4.5,1.8,5.2l4,12.8c.7,2.4,1.8,5.9,2.7,8.1-.7-.5-1.5-1.3-2.2-1.9-3.3-3.2-7-6-10.4-9.2.4-2,1.4-5.1,1.9-7.2.5-2.1,1.5-6.1,2.2-7.9Z"/>
    <path class="st2" d="M75.1,87.6c5.7,1.4,12.9,3.8,18.7,5.5-.2,3.2.2,8.5.3,11.9-5.1-4-9.8-8.9-14.6-13.2-1.4-1.3-3.1-2.8-4.3-4.2Z"/>
    <path class="st2" d="M61.3,84.6c2.3-.2,7.7,1.3,10.2,1.9,0,1.4-.7,3.9-.9,5.4-.7,4.1-1.8,8.1-2.5,12.2-.3,1.3-.5,2.6-.7,3.9-2.3-7.6-3.7-15.7-6.1-23.4Z"/>
    <path class="st2" d="M159.2,147.7c.3.5,0,13.2,0,14.5-3.7-.9-7.3-1.8-11.1-2.7-1.3-.3-2.1-.6-3.4-1.1,2.3-1.6,4.6-3.6,6.9-5.3,2.5-1.8,5.2-3.6,7.6-5.5Z"/>
    <path class="st2" d="M93.5,161.2c.3.3.2,23.6.2,26.6-.8-1.5-1.6-3.1-2.3-4.6-1.9-4-3.4-8-5.3-11.9,1.6-2.7,5.5-7.6,7.4-10.1Z"/>
    <path class="st2" d="M75.4,129.8c.6.5,1.8,3.8,2.2,4.7.4.9,2.3,4.5,2,5.3-1.2.8-12,3.1-14.5,3.7-.9.3-3.2,1.1-3.9.6.6-.7,3-2,4.2-3.4,3.3-3.6,6.5-7.3,9.9-10.9Z"/>
    <path class="st2" d="M161.9,89.4c1,.4,6.9,5.4,7.8,6.4l2.4,15.1c-.5,1.3-1,2.6-1.4,3.9l-.6,1.6c-.7-1.6-1.3-4-1.8-5.7-.7-2.5-1.4-5-2.1-7.4-1.3-4.3-3.2-9.7-4.3-13.9Z"/>
    <path class="st2" d="M60.8,61.9c.4.4,1.1,2.2,1.3,2.7,2.5,6.8,6.1,13.4,8.7,20.1-2.9-.7-5.9-1.2-8.7-2h0c-.2-1.4-.1-1.5-1.2-2.4,0-6.1-.2-12.3,0-18.4Z"/>
    <path class="st2" d="M122.4,103.1c.5,0,.6,0,1.1,0,1.1.8,5,15.2,5.5,17.5-1.3-1.4-2.6-2.7-3.8-4.1-3.4-3.7-7.4-8-10.6-11.7,1.8-.6,5.9-1.3,7.9-1.6Z"/>
    <path class="st2" d="M95.8,61.7c.4.5,8.5,28.6,8.5,29.9-.7-.8-1.9-2.3-2.7-3.1l-5.7-6.7c-.2-6.6.4-13.3,0-20.1Z"/>
    <path class="st2" d="M129.5,149.5c.7.3,11.6,8.7,12.4,9.8.3.4,4.5,8.1,5.1,9.3,1.8,3.7,5.3,8.9,6.8,12.5-.4-.3-3.1-4-3.6-4.7l-11.7-15.2c-2.8-3.6-6.5-8.1-9-11.7Z"/>
    <path class="st2" d="M94.4,62c.6,1,.1,16.2-.1,18.5-1.2-1.2-2.5-2.9-3.6-4.2-1.5-1.6-3-3.3-4.4-5,2.7-3.5,5.4-6.1,8.1-9.3Z"/>
    <path class="st2" d="M168.4,80.2c.6.4,8.8,11.7,9.6,13.1-.4.9-.7,1.8-1,2.7-.2.5,0,.5-.5.8-1.1-.3-4.3-1.6-5.6-2.1-.9-4.6-1.3-10-2.6-14.5Z"/>
    <path class="st2" d="M95.1,93.5c2,.3,8.3,2,10.1,2.7-1.5,1.4-3,2.7-4.6,4.1-1.7,1.6-3.3,3.3-5.1,4.9-.3-2.7-.5-8.9-.4-11.7Z"/>
    <path class="st2" d="M106.4,96.9c.3.3,1.7,2.4,2.1,2.8.9,1.3,1.8,2.6,2.8,3.8l-10.5,2.2c-1.5.2-2.9.5-4.4.7,3.1-3.2,6.6-6.4,9.9-9.5Z"/>
    <path class="st2" d="M161.3,62.8c.6.8,4.4,12.4,5.1,14.4-1.1,1.4-2,2.6-3,4.2-.6,1-1.2,1.9-1.8,2.8-.1-1.1-.2-2.2-.2-3.3,0-6-.3-12.1,0-18.1Z"/>
    <path class="st2" d="M135.5,139.1c3.2.7,7.2,2.1,10.5,2.9,1.6.4,6.8,1.6,8.2,2.2-.2.2-.2.1-.5.2-5.1.2-10.9.7-15.9.7-.8-1.6-1.5-4.1-2.4-5.9Z"/>
    <path class="st2" d="M166.7,79.1h.2c.7,1.3,2.3,12.4,2.7,14.6-.8-.8-1.5-1.4-2.4-2.1-1.4-1.2-2.9-2.4-4.3-3.5,0-.8-.2-1.7-.2-2.6.7-1.4,3.1-5.3,4.1-6.4Z"/>
    <path class="st2" d="M175.9,159.8c.7.5,1.8,1.6,2.5,2.2,3.1,2.5,6.1,5.6,9.2,8l-2.2-.8c-3.4-1.1-8.6-2.2-12.1-3.1l2.6-6.2Z"/>
    <path class="st2" d="M132.7,146.7h4.1c1.5,2.9,2.9,6.9,4.3,10.1l-2.4-2.1c-2.5-2-7.8-5.6-9.9-7.7,1.2-.2,2.7-.2,3.9-.2Z"/>
    <path class="st2" d="M95.7,84c1,.4,7.6,8.7,8.9,10.3v.2c-3.3-.8-6.4-1.6-9.5-2.5.3-2.4.4-5.5.5-8Z"/>
    <path class="st2" d="M108.6,97.3c2.3.3,10.9,3.5,13.3,4.3v.2c-.1,0-.9.1-.9.1-2.7.4-5.3,1-8.1,1.4-1.3-1.6-3.4-4.2-4.3-6Z"/>
    <path class="st2" d="M171.1,96.4c2.1.6,3.4,1,5.3,2-.8,2.2-1.6,4.4-2.4,6.6l-.9,2.9c-.8-3-1.7-8.5-2-11.6Z"/>
    <path class="st2" d="M133.9,139.1c.6.4,1.9,4.9,2.3,6-2,.1-3.9.2-5.9.2-.9,0-1.8.2-2.2-.7.5-.9,4.9-4.8,5.8-5.6Z"/>
    <path class="st0" d="M115.3,87.2l.2-.3c4.2,5.7,8.4,11.4,12.8,16.9,2.1,2.6,5.5,6.7,7.3,9.4-3.1-3-6-6.6-8.9-9.8-3.5-3.7-5.9-8.7-8.9-12.9-.8-1.1-1.5-2.4-2.4-3.4Z"/>
    <path class="st2" d="M169.8,120.7c.5,1,1.1,2.4,1.5,3.4-1.6,3.7-4.3,8.5-6.2,12.2l-.2.4h-.3c0,.1,0,.3,0,.3h-.1c0-1.1,2.5-7.7,3.1-9.3.8-2.3,1.5-4.7,2.2-7.1Z"/>
    <path class="st2" d="M172.6,113.7c.4.6,1.5,6.2,1.7,7.4-.6.7-1.3,1.4-1.9,2.1-.6-1.6-1.2-3.3-1.8-4.9.5-1.6,1.2-3.1,2-4.6Z"/>
    <path class="st2" d="M84.9,172.4c.6.4,4.5,9.8,5.1,11.1h0c0,.1-.5-.3-.5-.3-2.2-2.8-4.2-5.5-6.2-8.4l1.6-2.4Z"/>
    <path class="st2" d="M174.8,122.7c.3,1,2.9,9.4,2.7,9.9l-.3-.5c-.8-1.9-3-5.5-4-7.5.5-.7,1-1.3,1.5-1.9Z"/>
    <path class="st2" d="M179.1,94.7c.5.5,2.7,3.2,2.7,3.8h-.3c-1.2-.3-2.1-.7-3.3-1.1.3-1.2.4-1.6,1-2.7Z"/>
    <path class="st2" d="M185.7,101.2c.6,0,1.6,0,2.1.3.4.6.4,1.1.5,1.9h-.3c-1-.6-1.6-1.3-2.3-2.2Z"/>
    <path class="st1" d="M115.3,87.2c-.4-.5-1.1-1.5-1.3-2.1h.1c0,0,0,0,0,0h-.1c0,.1.2.5.2.5v-.4c.5.5.9,1.1,1.2,1.6l-.2.3Z"/>
  </g>
</svg>