<?xml version="1.0" encoding="UTF-8"?>
<svg id="Layer_1" xmlns="http://www.w3.org/2000/svg" version="1.1" viewBox="0 0 250 250">
  <!-- Generator: Adobe Illustrator 30.3.0, SVG Export Plug-In . SVG Version: 2.1.3 Build 182)  -->
  <defs>
    <style>
      .st0 {
        fill: #fefefe;
      }

      .st1 {
        fill: #004279;
      }
    </style>
  </defs>
  <path class="st0" d="M120.2,0c69-2.6,127,51.2,129.7,120.2,2.6,69-51.2,127-120.2,129.6C60.7,252.5,2.7,198.7,0,129.7-2.5,60.8,51.3,2.7,120.2,0Z"/>
  <path class="st1" d="M118.8,4.8c4.1-.2,8.3-.2,12.4-.1,0,2.4,0,4.7-.2,7.1-.6.8-1.8,1.8-2.5,2.5.7.7,1,1,1.7,1.6l3.2-2.8V4.9c1.1,0,2.5.1,3.7.2,0,1.5.1,11.5-.3,12-1.4.3-1.2.6-1.2,2,0,2.8,0,5.7,0,8.6-2.2-.1-5.5,0-7.8.1v16.2s2,1.5,2,1.5c.1-5.4,0-10.5,0-15.9,2.5,0,5.2,0,7.6-.5l-.2,3.4c-1.5,1.5-3.4,3.1-5,4.5l.2,10.6c.7.6,1.6,1.1,2.4,1.6v-11.2c1.5-1.6,3.8-3.4,4.9-5.1.3-9.7-.4-18.1-.4-27.7l3.4.5c.2,6.7.2,13.4,0,20.1,0,2.4,0,5.1-.1,7.5-1.5,1.5-2.9,3.2-4.3,4.9-.3,4-.3,9.5,0,13.5l2.3,1.5c.2-4.5.2-10.1.1-14.6,1.3-1.5,2.8-3.2,4.2-4.7.2-3,0-7.2,0-10.2V6.2c4.2.4,9,1.7,13,2.7,0,3.4-.1,6.5,0,9.9-1.1,0-2.3-.1-3.4-.2,0,1.8-.1,3.5-.1,5.4,2.8,0,5.5,0,8.3,0,0-1,0-2.2,0-3.2,0-2.8-1.2-1.5-2.1-2.3-.5-1.6,0-6.7,0-8.8,4.1,1.1,7.8,2.7,11.7,4.2v5.4c-4.2,2.9,0,8.6,3.8,5.1,1.5-1.4.3-3.4-1-4.5,0-1.6.1-3.3.2-4.8,2.7,1,6.7,3.2,9.1,4.8-.2,2.7.2,5.8,0,8.5,0,1.5.2,3.3-.4,4.7-.3.8-.6,1.6-.4,2.5,1.4,4,7.2.1,3.4-3.2,0-3.6,0-7.4-.2-11,1.3.6,3.4,2,4.7,2.8-.2,4.5-.2,9.4-.2,14-2.4,0-4.8,0-7.2,0-.2,6,.1,12.3,0,18.4-1.3,0-2.3,0-3.6.1-.8,2-.6,3.8-.8,6.1-2.8-.2-16.3-1.8-18.1-.8v.3c2.1,1.3,17.5,3.3,19.6,2.4.8-1.2.7-4.1.8-5.7,2.5.3,6,0,8.6,0,5.8-5.9,13.6-14,19.7-19.4l2.1,2c-6.2,5.8-12.2,11.8-18.1,18-1,1.1-6.3,3.1-3.9,5.6,2,2,3.9-2.4,5.1-3.5,6.5-5.9,12.6-12.1,18.4-18.7l2.2,2.4c-4.1,4.2-8.3,8.3-12.4,12.4-2.2,2.2-4.8,5.2-7.1,7.1.2,1.5.2,2.9.2,4.5.8-.3,1.7-.7,2.5-1v-2.9c5.3-4.5,13.3-12.9,18.4-18,3.9,4.2,7.5,9.8,10.5,14.6-2.3,0-11.8-.1-13.6.4-.7.6-.7,6.4-.8,7.9-3.7,0-8.1-.3-11.8,0-1.9.2-3.3,1.6-4.3,3.2,0,1-.4,4.2.3,4.9,1.6-.5,1.6-3.7,2.8-4.9,1.8-1.8,12.9-.8,15.7-.8,0-3,.3-5.6.3-8.8,3.8,0,9.2.6,12.7.3.8,1.3,1.7,3.2,2.4,4.6-3-.2-5.8-.2-8.8-.2-2.2-1.9-4.5-1.3-4.4,1.6.1,3.5,3,3.7,4.8,1,3.1,0,6.5.2,9.5,0,1.4,2.7,3.4,7.4,4.3,10.2-1.2,0-2.4,0-3.5,0-2.7-3.9-5.9-.7-5.3,1.9.7,3.4,3.6,4,5.5.5,1.5.1,2.9.3,4.4.4,1.4,4.3,2.3,7,3.5,11.5l-7.2-.2.2-2.6c-1.6,0-2.3,0-3.8-.2,0,2.7,0,5,0,7.7h3.6c0-.8,0-1.5.2-2.1,1.3-.3,6-.1,7.6-.1.3,2.7,1.2,6.8,1.7,9.8-3.4.2-7.4,0-10.8,0-3.5,0-7.3.1-10.8,0-1,.9-2,1.7-3,2.5-7.2.2-15.3-.4-22.4,0,0,.8-.2,1.6-.3,2.4,3-.1,5.8,0,8.8,0h14.5c.9-.8,1.9-1.7,2.8-2.6,6.9-.2,14.5,0,21.5,0,0,1,.2,2.2.3,3.2-6.6,0-15.1.3-21.4-.2-1.5,1.5-2.6,2.6-4.2,4h-22.9c0,.7-.1,1.5-.2,2.3,7.7.1,15.4,0,23.1.1,2-1.2,3.9-2.9,5.9-4.3,0,2.7,0,5.3,0,8-9.8.2-20.1,0-29.9,0-.2.8-.3,1.6-.4,2.3h32.9c0-3.2,0-6.7,0-9.9,5.8,0,11.5,0,17.3,0v3.5c-1.5.2-7.6-.2-8.3.2-.5.3-.8.6-.9,1.2-.1.6,0,1.2.5,1.7.4.5,1,.7,1.6.7.6,0,1-.5,1.4-.9l.2-.2h5.6c0,3,0,6.1,0,9.3-2.2,0-5,.5-6.7-1-1.4-1-3.4,1.7-2.4,2.6,1.6,1.4,6.7.6,9,.7,0,1.8-.2,3.6-.4,5.4h-16.7s0-10.7,0-10.7c-11.1,0-22.2,0-33.3,0l-.7,2.4h31.4c0,1.5.5,6.9-.3,7.7-1.1-.1-3.6-2.9-4.6-3.8h-27.1s-1,2.5-1,2.5c5.4-.1,10.7-.1,16.1,0,2.5,0,8.5.2,10.7-.3,1.7,1.5,3.2,3,4.8,4.6,6.7,0,13.5,0,20.2,0l-.6,3c-6.7.1-13.7,0-20.4,0-.9-.6-3.1-2.7-3.9-3.5-2.7.3-7.6.2-10.4.2h-17.8s-.9,2.3-.9,2.3c9.3-.3,19.2,0,28.6-.1.9,1,1.9,2.3,2.8,3.4,7.2,0,14.5,0,21.7,0-.4,2.8-1.6,6.8-2.3,9.7-2-.1-4.2-.1-6.2-.2v-3.5c-1.4,0-2.4,0-3.7,0,0,3,0,5.9,0,8.9,1.2,0,2.3,0,3.5.1,0-.8.1-1.7.2-2.6h5.6c-1,3.3-2.3,7-3.1,10.1h-3.5c-5.6-5.6-6.9,6.6-1,4.2,1-.4,1.7-.7,2.8-.9h.3c-1.5,3.1-2.7,5.6-4.4,8.7-2.4,0-5.2.4-7.8.4-6.8-4.7-5.7,7.5,0,2.5,2.2,0,4,0,6.2-.4l-3.6,5.6c-3.1,0-6.2.2-9.3.2.1-2.9-.1-5.7-.1-8.7-5.4.1-10.8.2-16.2.3-1.7-1.7-3.4-3.8-5.2-5.2h-5.4c-.3-2.6-.3-6.8-.4-9.5-2.3-1.3-5.4-3.9-6.9-4.6h-.4c-1.1,2.5,3.5,4.8,5.1,5.9.4,3.5-.3,7.3.9,10.3,2.1,0,4.5.1,6.6.5,1.4,1.6,2.8,3.5,4.4,4.8,3.1.4,10.9.1,14.3.1.4,2.6.4,5.7.5,8.3,3.8,0,7.1,0,10.8-.2-2.7,4-6.5,9-9.8,12.5-5-4.9-9.9-9.8-14.7-14.8-1.9-2-5.8-6.5-7.8-7.9-2-.2-5,.3-6.7-.4-.4-.5-.3-3.5-.4-4.4-.2-2.2-.5-4.2-.9-6.3-1.5-1.6-3.1-2.9-4.8-4.4l-1.1,1.3c.9.9,3.1,2.9,3.6,4.1,1.3,2.7-.6,9.3,1,11.4.7.9,6.8.6,8.2.6,4.8,4.9,9.5,9.8,14.2,14.7,2.6,2.7,4.9,5.4,7.6,8-.8.9-1.6,1.8-2.4,2.6-3.6-2.8-7.1-7-10.6-10.1-1.8-1.6-3.6-3.5-5.1-5.3-.8-.9-1.5-1.9-2.5-2.7-1.9-1.4-3.7,1.1-1.9,2.8,6.8,5,11.9,12.1,18.2,17.6-.9.8-1.7,1.6-2.6,2.4-5-6-11.2-11.3-16.5-16.9-3.2-.7-10-.6-13.4,0,0-4.4,0-9,0-13.3,0,0-.2,0-.2,0h-.4c-2.1-.4-6.8-.3-9.1-.3-.5.8-.6.9-.9,1.8.9.7,6.6.5,8.2.4,0,3-.5,9.4,0,11.9,0,.5.3,1,.7,1.3,1.4,1.1,11.4.1,13.7,0,2.7,2.4,5.4,5.3,7.9,7.9,2.9,3,5.8,6,8.7,8.9-3.1,3.2-7.7,5.9-11.2,8.8.3-2.6.1-5.9.3-8.6.2-3.1-5.4-2.4-7.4-2.4.2-3.2,0-6.9,0-10.2-4.3-2.4-9.4-.3-14.1-1.3-.8-.9-.5-4.3-.5-5.7,0-5.3-6.6-1.6-9.5-3.2-.6-.3-.6-3-.6-3.8l-1.9,1.4c0,7.5,3.8,4.6,10,4.8v6.9c.8.8,1.2,1,2.2,1.7,3.8.2,8.4.2,12.3.3-.3,3.9-.3,7.8-.1,11.7l7-.3c.2,3.4.2,6.8.3,10.2-1.3,1.2-3.7,2.6-5.3,3.6.3-1.9.3-4.9.4-6.9,5.5-4.8-6.9-7.6-2.6-.1,0,3-.3,5.4-.3,8.4-2.5,1.5-5.1,2.8-7.8,3.9,0-2.7-1.3-6.1-4.6-4.2-3.3,2,.6,4.4.2,6.2-1.7,1.5-9.3,4-11.7,4.8v-4.7c0,0,2.7,0,2.7,0,.1-1.6.5-2.9-.4-4.2-.3-.2-.7-.5-1-.4-2.5.2-4.8.3-7.3.3-.1,1.5-.1,2.8-.1,4.4,1.2,0,2.7,0,3.8,0,0,1.6,0,3.6,0,5.2-2.5.8-5.9,1.5-8.5,2.2.5-8.2.2-13.8,0-21.8-.8-.8-1.6-1.6-2.4-2.3,0-6.5,0-13,0-19.5l-2.4,1.7c0,4.9.2,12.9-.4,17.6,1.2,1.2,2.2,2.2,3.2,3.5,0,4.1,0,8.1,0,12.2,0,2.9-.2,6.3,0,9.2-1,.2-2.1.4-3.2.6,0-5.1,0-10.1,0-15.2,0-2.1,0-4.2-.2-6.3-1.5-1.7-3.1-3.3-4.6-4.9-.1-4.1,0-9.7.1-13.8l-2.3,1.2c.3,3.9.2,9.8,0,13.7,1.7,1.6,3.2,3.1,4.7,4.9.3,6.2.2,14.5.1,20.7-1,0-2.2.3-3.2.4,0-1.3-.6-5.2-.3-6,1.4-1.1.9-3.6,1-5.3v-9.1c-1.7-2.1-3.9-3.9-5.8-6,.1-3.7,0-7.6,0-11.3l-2.4,1.1c0,3.5.2,7.3-.3,10.7,1.8,1.4,3.9,3.8,5.8,5.4v4c-2.7-.1-5.3,0-8.1-.2-.7-5.2,0-12.8-.3-18.7l-2.4.9c-.1,6.4,0,13.2,0,19.7,3.2,0,6.1-.3,9.3,0,0,1.5-.4,7.4,0,8.5.4,0,.5.1.9.3.3.9.2,5,.3,6.2-1.2.1-3.9.6-4.7,0,0-.9,1.4-2.1,1.3-2.8-.5-2.5-2.9-2.5-4.2-.6-.3,1.8.7,1.5,1.4,3.1l-.2.4c-1.1.6-9.7.8-10.7.2,0-1.3,1.3-2.3,1.1-4.1-.6-1-2.1-1.3-3.1-.5-2.3,1.6.1,3.3,0,4.5-1,.5-3.1.2-4.3.1,0-1.8-.1-4.2-.1-6.1.4-.4.9-.8,1.3-1.2,0-2.6,0-5.2,0-7.8,2.9-.2,6.3,0,9.3-.1,0-3.8,0-7.6,0-11.4,0-2.5,0-5.9-.2-8.3l-2.2-.4c0,5,.2,10.1.2,15.1v3.2c-2.8.2-6,.1-8.8,0,0-1.3,0-2.6,0-3.9,1.9-1.9,3.6-3.5,5.6-5.2.2-3.1,0-7.4,0-10.4-.8-.5-1.7-.8-2.5-1.2.3,3.4.2,7.3.2,10.7-1.8,1.6-4.4,3.9-5.8,5.7-.1,1.5-.2,13.8,0,15h.5c.6.9.3,5.1.3,6.2l-3.5-.4c.6-6.3,0-14.7-.1-21.3,1.8-1.8,2.9-3,4.5-4.9-.2-3.4-.2-9.6.3-13l-2.7-1.5c0,4.6.3,9.2,0,13.8-.9,1.3-2.9,3-4.1,4.4.4,6.7-.2,15.1-.2,22.1l-2.6-.4c-.2-7.3,0-14.8,0-22.1.8-.8,1.6-1.6,2.4-2.5.1-5,.4-13.5-.3-18.2-.7-.5-1.5-1-2.2-1.5,0,6.2.2,12.4.2,18.7-.6,1-2.1,2.7-2.8,3.6,0,7-.2,14.4,0,21.3-2-.5-6.7-1.5-8.4-2.4-.3-.6,0-4.2.1-5h3c.1-1.4.5-2.9,0-4.1-1.2-.5-6.2-.4-7.6-.3-1.1.8-.9,3-.2,4.2.8.5.8.3,1.9.2v4.3c-3.6-1-8.8-3-12.1-4.7.7-1.1,2.1-2.2,2-3.6,0-2.6-3.7-3.9-5.3-1.7-.9,1.2-.5,2.3-.2,3.7-3.3-1.5-5.5-2.7-8.6-4.5-.2-2.6-.1-5.6,0-8.2,1.5-2,1.2-4.4-1.7-4.5-1.7,0-3,3-.6,4.7,0,2.1,0,4.3,0,6.4l-4.5-2.9c0-3.8,0-6.9-.2-10.6,1.9.2,4.9.2,6.9.2.5-4.1.5-7.7.5-11.8,2.3,0,8.2.5,10-.4.7-.9.4-4.2.3-5.4,6.1-.3,11.2.8,17.2-.1,0,3.4,0,6.8,0,10.2h-3.4c0,0,0-4.6,0-4.6h-2.9c-.2,5.7,0,11.7-.1,17.5h3.1s0-4.5,0-4.5c1.8-.1,3.7,0,5.5-.2.3-.4.4-1.4,0-1.9-1.3-.4-4-.3-5.5-.3v-3.7c.1,0,5.7,0,5.7,0,0-2.3.3-13.5-.6-14.9-4.4,3-15.1-1.1-20,1-2.7,1.2,1.1,5.7-4.3,5.3-2.1-.2-5.5-.1-7.6.6.1,3.7,0,7.5,0,11.2-1.7,0-5-.2-6.6.2-.7.8-.8,8.8-.8,10.4-3.6-2.4-7.3-5.5-10.6-8.3,5.1-5,10.8-12.1,16.2-16.5,1.2-.1,2.4-.2,3.6-.2,4.5,0,5.7-.2,5.8-4.9,4.6-.9,10-.3,14.8-.6,1.4,0,5.3.2,6-1l-.2-.2c-2.7-.8-20-1.4-22.4-.3-.9,1.2-.7,3.1-.6,4.6-2.6,0-5.2,0-7.9,0-.7.6-1.5,1.4-2.1,2.1-4.9,5.1-10.5,9.5-15.3,14.7-.5-.6-1.4-1.4-2-2,1.7-1.6,3.6-3.6,5.3-5.3,2.6-2.5,5.2-5,7.8-7.5,1.4-1.3,4.5-3.1,5.3-4.2.4-.6.7-1.4.5-2.1-.1-.3-.3-.6-.6-.7-.5-.2-.9-.2-1.4,0-1.1.3-1.4,1.1-1.9,2-.7,1.3-14.9,14-17.1,15.9l-2.7-2.9c4.8-4.6,9.2-9.1,13.8-14,2.6-2.8,5.7-5.3,8.3-8.2,3.4,0,11.5,1.2,13.5-1.5,1-1.3.8-13-.4-13.6-3.2,1.1-.6,9.8-1.9,12.4-1.3,1-10.4.6-12.5.6-.9.7-1.6,1.5-2.4,2.4-6.4,7-13.3,13.5-19.8,20.3-3.6-3.9-6.9-8.5-9.9-12.9,3.5.2,7.4,0,11.1.2,0-2.7.1-5.3.1-8,4.5,0,8.6.1,13.1,0,1.6-1.2,3.8-3.7,4.9-5.3,2.4-.4,4.8-.2,7.4-.6.3-3.3.2-6.5,0-9.8,1.2-1.1,5.2-3.8,6.8-4.9-.4-.7-.4-.7-1-1.3-2.8,1.7-5.1,3.2-8,4.9,0,3.1.2,6,.1,9.1h-5.9c-1.5,1.4-3.4,3.8-4.8,5.5h-15.2c-.1,2.7-.2,5.3-.2,8-3.2-.1-6.5,0-9.7,0-1.1-1.9-2.1-3.6-3.4-5.4,2-.2,4.3,0,6.3,0,6.9,5.9,6-7.6.5-2.1-2.6,0-5.5-.3-8.2-.3-1.8-3.3-2.9-5.8-4.2-9.2.9.3,2.3.9,3.1,1.3,3.7,1.9,5.8-2.5,3.4-5.2-1.5-1.6-3.1-.5-4.1.9-1.2,0-2.4.2-3.7.2-1.2-3.4-2.4-6.9-3.5-10.4,1.9,0,3.7,0,5.6,0v2.5c.1,0,3.8,0,3.8,0,.1-2.7-.2-4.9,0-7.7-1.3-.2-2.3-.2-3.7-.2l-.2,2.6h-6.2c-.9-3.1-1.6-6.2-2.3-9.3,1.2,0,2.4,0,3.7,0,5.7,0,11.4-.1,17.1,0,1.3-1.1,2.5-2.3,3.8-3.4,9.2.2,18.8,0,28.1.1l-.6-2.3h-17.9c-2.9,0-7.9.1-10.6-.3-1.1,1-2.4,2.4-3.4,3.6H5.9s-.5-3.1-.5-3.1c5.4,0,15-.3,20.1.2,1.7-1,3.6-2.9,5.1-4.3,8.3.2,17.5-.2,26-.2l-.6-2.4c-8.6.1-17.3.1-25.9,0-1.1,1-4.4,4.3-5.5,4.5l-.3-.3c-.3-1.2-.2-6.6-.2-8.1h31.2s-.5-2.4-.5-2.4H21.5c0,3.6-.2,7-.2,10.6-5.4.2-10.9,0-16.3.1-.2-1.8-.3-3.7-.4-5.6.8,0,1.7,0,2.6,0,2,.1,6.2,1.6,6.5-1.7-.4-1.4-2-2.2-3.3-1.9-.1.1-1,.8-1,.8-1.3.3-3.6.2-4.9.1,0-2.8-.1-5.7-.1-8.5,1.3-.1,3.6-.5,4.8-.2.7.6,1.4,1.3,2.5.9,1.1-.4,2.3-1.4,1.7-2.8-1.8-1.4-6.6-.6-8.9-.3v-4c5.7,0,11.4,0,17.1,0v9.9c10.4.3,22.2,0,32.6,0-.1-.8-.3-1.5-.4-2.3-9.5-.3-20.2,0-29.8,0,0-1.7-.5-6.6.6-7.5,1.3,0,4.4,2.8,5.6,3.8h22.5s-.1-2.3-.1-2.3c-7.2,0-14.6.1-21.9,0-1.9-1.5-4-2.5-6-3.8H4.7c0-.9.1-2.1.2-3.1,7.5,0,14.9,0,22.4,0l2.5,2.4c7.4.2,14.8.3,22.2.3,0-.9-.1-1.7-.2-2.6-6.8-.2-14.1,0-21,.1-1-.9-1.9-1.6-2.9-2.5-6.6-.4-15.7,0-22.6-.2.5-3.1,1.3-7.1,2.1-10.1,2.2,0,5.3,0,7.6,0l-.2,2.7c1.6,0,2.3,0,3.8-.2v-7.5c-2.6,0-3.6-.3-3.7,2.8-2.4-.2-4.6-.1-7.1-.1.9-3.9,1.8-7.5,3.2-11.3,1.6-.1,2.7-.2,4.3-.2l.7.9c2.8,4.1,6.5-1.4,4-4.3-1.7-1.9-3.7.5-5.4,1-.5.1-1.8,0-2.4,0,1.4-3.7,2.5-6.8,4.3-10.3,3.2-.1,6.4-.3,9.6-.1,3.4,5.9,7.4-2.6,2.9-3.5-.9-.2-1.7.4-2.4,1h-9c.9-1.5,1.9-3.1,2.8-4.6,4.1,0,8.2-.1,12.4-.2-.2,2.4,0,6.6,0,9.2,4.5,0,9.7-.3,14.2.1,2.7.2,1.4,4.1,2.8,5.4.8.2.4.3,1.1,0,.7-1.4-.1-4.7-.5-6.2-1.1-1-1.4-1.2-2.7-1.9-3.6,0-8.8-.2-12.3.1l-.3-8.8c-4.1.2-9.3,0-13.5,0,3-4.6,6.5-9.7,10.2-13.8.3.2.6.5.9.8,5.6,4.9,10.7,11.3,16.2,16.4.7.6.4,2.1.8,3.1.6.6,1.3.8,2.1,1.1.1-1.9.2-3.3.1-5.1l-.3-.2c-1.7-1-6.2-5.8-7.8-7.5l-10.3-10.4c.7-.8,1.5-1.6,2.3-2.4l9.8,9.9c2.3,2.3,4.8,5.1,7.2,7.2,1.8,1.6,2.5,3.2,4.2,4.6.4.3.9.2,1.3,0,1.9-1.6.6-3.6-1.3-4.3-1.3-.7-3-2.5-3.9-3.6-4.9-5.4-11.1-10.3-15.7-16,.6-.6,1.4-1.3,2-1.9,1.9,1.6,4.1,3.9,5.9,5.7,4.5,4.3,8.9,8.7,13.2,13.3,3.5,0,7.1,0,10.6.2.1,2.5-.1,5.4,0,8.1l2.3-.3c-.8-13.5.8-9.6-12.4-10.6-3.1-2.9-5.7-6.2-8.7-9.2-3-3-5.9-6.1-9-9.1,4.9-5,8.3-7.9,14.2-11.7-.1,2.4-.3,12.5.5,14.2.8.7,5.2.4,6.6.4,0,16.4-2.4,11.5,10.6,13.2h.3c0,9.5-.8,9.7,8.5,8.9,1.3-.1,3.1.3,4.4.6.9-.3,2.2-.7,1.9-1.7-2.1-1.8-9.7-1.1-12.7-1.1v-3.5c.3-7.7-4.6-5.9-10.5-5.7-.2-4.4-.2-8.8-.2-13.1-1.5.2-5,0-6.8.1-.4-3.4,0-10.1-.1-13.9,1.4-1,2.7-1.9,4.1-2.8.3,3.1.1,7.2.1,10.4-.9.8-2,2.2-1.3,3.3,1.7,3.2,6.3,1,3.8-2.9.2-2.4.4-9.9,0-12.2,3-1.8,6.4-3.3,9.5-4.9v4.6c-6,4.1,3.2,8.1,4.6,3.3.3-1.2-.9-2.8-1.6-3.7,0-1.9,0-3.8,0-5.7,3.5-1.7,8.4-3.6,12.1-4.8-.1,2.9,0,6.6,0,9.6h-2.5c0,1.9-.3,3.3.6,4.9.2.2.6.5.9.5,2.3,0,4.8-.2,7.1-.3.1-1.2.5-3.6,0-4.7-.7-1.4-1.9,0-3-.4-.7-1-.3-8.7-.3-10.4,4.5-1.1,8.1-1.8,12.7-2.6-.3,4.9,0,10.2,0,15.1,0,4.4,0,8.8,0,13.1,1.7,1.4,3.4,3,5,4.5,0,4.6,0,9.6,0,14.2.7-.3,1.6-1,2.2-1.4,0-4.5.3-8.9.3-13.5-1.7-1.6-3.4-3.1-5.1-4.6.2-8.6-.4-18.7-.4-27.6,1.1-.2,2.6-.3,3.8-.5,0,9.2-.4,18.7-.4,28.1,2,1.8,3.8,3.2,5.8,5.1-.1,3.3,0,6.7,0,10,.7-.5,1.5-1.1,2.2-1.6,0-3.2,0-6.4,0-9.6-1.6-1.1-4.3-3.6-5.9-5v-2.7s8.1,0,8.1,0c0,5.3.2,10.5.1,15.7,1.1-.8,1.4-1.1,2.3-2,0-5.2-.1-10.4-.1-15.6-2.7-.1-5.5,0-8.2-.1,0-1.9.2-8.8-.3-10l-.9-.3c-.4-1.1-.3-10.4-.4-12.2,1.3-.2,2.5-.2,3.9-.3-.1,3.1-.1,5.3,0,8.4,1.1,1.2,1.5,1.5,2.8,2.5.6-.5,1.2-1.1,1.7-1.6-.7-.9-1.6-1.6-2.5-2.4,0-2.1.2-4.8.3-7Z"/>
  <path class="st0" d="M124.8,46.5c1,.4,4.8,3.7,6,4.6,18.8,14.2,39.9,19.6,63.1,22,0,26.3,1.8,49.3-8.4,74.3-8.3,20.4-23,38.8-41.7,50.7-6.5,4.1-12.2,6.7-19.2,9.8-2.8-1.6-6.7-3.1-9.8-4.8-10.2-5.3-19.5-12.2-27.6-20.3-18.5-18.5-28.6-44.4-31.3-70.3-.6-6-.5-12.9-.5-19v-20.5c1.7-.3,4-.5,5.7-.6,24-1.9,45-10.8,63.7-25.8Z"/>
  <path class="st1" d="M124.5,60.5c3.3,1.6,7.1,4.8,10.4,6.6,8.6,4.9,17.7,8.7,27.2,11.4,4.2,1.2,8.6,2.2,12.9,2.8,1.3.2,9,1,9,1.9,3.4,48.2-12.6,92.2-59.2,112.6-15.8-7.5-26.6-14.7-37.5-28.4-17.6-21.9-23.1-49.5-22.3-77,.2-8.8-1.7-7.4,6.9-8.7,18.8-3,37.1-9.6,52.6-21.3Z"/>
  <path class="st0" d="M135.7,122.5c7.4.1,33.8,0,42.6.2.1.1.2.2.3.3-1.2,6.1-2.3,10.7-4.4,16.6-6.7,18.4-19.1,34.3-35.4,45.2-3.1,2-10.7,6.8-14.2,7.6-.3-5.3,0-13,0-18.5v-37.9s11.1,0,11.1,0v-13.6Z"/>
  <path class="st0" d="M68.4,85.6c2.7-.2,6-.8,8.7-1.3,13-2.4,25-6.6,36.6-12.8,1.9-1,10.3-6.5,11-6.8.3,16.3,0,33.1,0,49.4h-11c-.2,2.4,0,5.8,0,8.3-14.1,0-28.9-.2-43,0-2.4-14.3-2.3-22.6-2.3-36.9Z"/>
  <path class="st0" d="M181,85.7c-4-.7-7.7-1.2-11.8-2-11.4-2.4-22.3-6.4-32.6-11.9-4.2-2.2-8-5-12-7.1-.7.2-9.1,5.7-11,6.8-11.7,6.2-23.6,10.4-36.6,12.8-2.7.5-6,1.1-8.7,1.3,0,14.3-.1,22.6,2.3,36.9,2.7,17.5,12.5,36.7,24.7,49.4,3.5,3.7,8.3,7.7,12.5,10.8,3.2,2.3,6.6,4.5,10.2,6.3,1.7.9,5.2,2.5,6.6,3.4,3.5-.8,11.2-5.6,14.2-7.6,16.3-10.9,28.7-26.7,35.4-45.2,2.1-5.9,3.2-10.6,4.4-16.6,2.3-11.3,2.6-25.7,2.4-37.3Z"/>
  <path class="st0" d="M64.3,157.4h.2c.3.8.3.5.2,1.1-2.2,1.8-9.7,1.5-12.7,1.5.3,4.1.2,8.7.1,12.8-4.1.5-11.9.2-16.2.2,0-1.4.3-5.1-.5-6-.6,0-.6,0-1.1-.4-.4-.8-.2-1.7-.2-2.6.7-.4,5.5-.2,6.7-.1,0,.9.2,2.1-.1,2.8-.8.5-.8.3-1.9.4,0,1.6,0,2.3.1,3.9,1.6.3,8.9.6,10.3-.2.5-1.2.6-11,.7-13.1,2,0,4-.1,5.9-.1,3,0,5.7.2,8.6-.2Z"/>
  <path class="st0" d="M198,158.2c.7,0,1.1,0,1.6.5.3,2.3.2,10.6,0,13,3.7,0,7.7-.2,11.6-.1,0-1.3.4-3.1-.4-4-.7-.2-.9-.2-1.4-.8-.4-.8-.2-1.9-.2-2.9,2.3.1,4.7,0,7,0,0,1,.2,2-.2,2.9-.6.5-.2.4-1.1.3-1,.7-.1,5.1-.9,6.1-5.3.5-11.4.4-16.7.4.2-3.1,0-9.3,0-13-1.8.2-12.3,1.1-11.4-2.1.7-.2,3.6,0,4.6,0,2.5,0,5.1-.1,7.6-.3Z"/>
  <path class="st0" d="M157,192.6c.7,1.3.3,12.2.2,14.6,1.1,0,2.2,0,3.3,0,.1-1.4.1-3.1.1-4.5h3.2c-.3,5.5,0,11.8-.2,17.4h-2.9c-.1-.6-.1-3.6-.1-4.4h-5.6s0-2.3,0-2.3c2,0,3.7,0,5.7,0,0-1.1,0-2.6,0-3.7-1.9,0-3.8,0-5.6,0,0-5.1,0-10.2,0-15.4.6-.6,1.3-1.1,2-1.6Z"/>
  <path class="st0" d="M86.2,36.5h3.2c0,0,0,4.1,0,4.1,1.5,0,4.7-.4,5.6.7,0,.7.2.4-.2,1-1.3.9-3.9.6-5.6.6,0,1.1,0,2.5,0,3.6h5.7c-.2,4.1,0,8.9,0,13-.4.7-1.6,1.1-2.3,1.4,0-4,0-8.1,0-12.1h-3.5s0,4.4,0,4.4h-3.1c0-5.4,0-11.2,0-16.7Z"/>
  <path class="st0" d="M160.7,36.4h3.1s0,16.9,0,16.9h-3.1c0-1.6,0-3.1,0-4.6-1.2,0-2.2,0-3.4.1,0,2.6.1,8.4-.2,10.9-.8,0-1,0-1.7-.2-.6-.7-.2-11.3-.2-13.1h5.4c0-1.2.1-2.5.2-3.7-1.8,0-5.2.7-5.8-1.2.4-1.8,4.2-1.2,5.8-1.2,0-1.3,0-2.7,0-4Z"/>
  <path class="st0" d="M86.5,26.6c2.5-.1,6,0,8.6,0,.2,1.8,0,6.2,0,8.2-5.2.5-10.2.1-15.3.3-2.4.1-.7,2.2-4.9,2.2-1.4-.9-2.2-2.5-1.3-4.1.4-.7,1.1-1.2,1.9-1.4,1.2-.3,1.8.2,2.8.8,4.5-.3,9.8-.2,14.4-.3v-3.2c-2,0-4.4.5-5.8-.3-.5-.8-.3-1.1-.4-2.2Z"/>
  <path class="st0" d="M187.3,151.5c3.4,1.4,22.2.7,27,.6,0,1.2-.3,5.4.2,6.3,1.9.3,2.4,1.4,1.2,3.1-.2.2-1.1.1-1.4.1h-4.9c0-1.2-.2-1.9.5-2.8,2.2-.8,1.7-2,1.6-4.1-6.4,0-12.8,0-19.2-.2-1.6,0-4.4-.2-5.6-1.4,0-.8.1-.7.6-1.6Z"/>
  <path class="st0" d="M155.5,26.6h7.6s0,2.7,0,2.7c-1.9,0-3.8-.1-5.7-.2,0,1.1,0,2.2,0,3.3l13.6.2c2-1.2,2.5-1.4,4.6-.4,2.1,2.4.6,5.6-2.7,5.2-.7,0-1.5-1.5-1.8-2.1-1.3-.5-13.1-.2-16-.5,0-3.3-.2-4.9.5-8.1Z"/>
  <path class="st0" d="M172.9,219.4c1,0,1.7,0,2.5.6.6.5,1,1.2,1.1,1.9,0,.9-.2,1.8-.8,2.5-1.4,1.6-3.3,1-4.7-.3-4.4,0-9.5-.3-13.9,0v3.3c1.9,0,3.8,0,5.6,0,.5.4.3,1.4,0,1.9-1.4.7-5.9.3-7.8.2-.1-2.7-.2-5.3-.1-8,4.8-.3,11.1,0,15.9,0,.6-1.2.9-1.4,2.1-2.1Z"/>
  <path class="st0" d="M75.5,219.4c2.1.1,2.5.4,3.5,2.3,5.5-.3,10.6-.3,16.2-.1-.1,2.7-.2,5.3-.2,8-2.1,0-5.8.2-7.8,0-.4-.4-.4-.9-.5-1.6l.3-.4c1.1-.4,4.5-.2,5.8-.2v-3.3c-4.6,0-9.3,0-14.1-.2-3.8,4-8.1-1.2-3.2-4.5Z"/>
  <path class="st0" d="M35.6,152.1c8.8-.3,17.7.3,26.6,0,.2,0,.3.1.5.2.4,2.7-9.5,1.9-11.4,2h-12.7c0,1.3-.4,2.9.2,3.9.8.4,1.1.2,2.1.2v3.1c-2.2,0-4.6,0-6.8,0,0-.9-.1-1.6.1-2.5.5-.6.3-.4,1.3-.7.6-1.1.3-4.9.2-6.4Z"/>
  <path class="st0" d="M165.5,202.6h3.2s0,4.6,0,4.6c1.2,0,4.7-.2,5.5.4,0,.7,0,1.1-.2,1.7-1,.2-4.1.2-5.3.2v3.7c1.5,0,4.2-.3,5.5.3.2.1.2.9.3,1.2-.6,1.1-4.5.8-5.9.8,0,1.7,0,2.8,0,4.5h-3.2c0-5.8,0-11.6,0-17.4Z"/>
  <path class="st0" d="M165.6,36.4c1,0,2.2,0,3.3,0v4.1c1.5,0,4.7-.5,5.6.7,0,.9.1.8-.3,1.3-1.2.3-4,.2-5.3.2v3.7c1.3,0,4.3-.5,5.4.3.2.2.2.9.3,1.3-.8.9-4.4.6-5.7.6,0,1.5,0,3,0,4.5-1,0-2.1,0-3.1,0,0-5.5,0-11.2,0-16.7Z"/>
  <path class="st0" d="M81.9,202.7h2.5c0,5.7-.2,11.7,0,17.4-1.2,0-1.8,0-3-.2v-4.3c-1.7,0-3.3,0-4.9,0-.1,0-.4,0-.5,0-.3-.6-.2-1.4-.2-2.2,1.9,0,3.8,0,5.6,0v-3.7c-1.9,0-3.8-.2-5.6-.3v-2.1c2,0,3.8,0,5.6,0,0-1.1-.2-3.4,0-4.3l.5-.3Z"/>
  <path class="st0" d="M21.5,92.6c.7,0,.8,0,1.5,0,.1.5.1,6.2.1,7.2h3.8c0,0,0-1.3,0-1.3.1-1.5.2-1.9-.9-2.9-.6-.5-.4-2.1-.4-2.9,1.9,0,4.7-.2,6.5,0,.3.5.2,1.5.2,2.1v.8c0,0-.4.2-.4.2-.6,0-.7,0-1.3.1-.8.9-.5,4.7-.5,6.3-3.2,0-6.4,0-9.5,0,0-1.9-.3-8.1.2-9.4l.6-.3Z"/>
  <path class="st0" d="M81.2,36.4c1,0,2.1,0,3.1.1,0,5.6,0,11.1,0,16.7-.8,0-1.8,0-2.7,0,0-1.5,0-3-.2-4.4-1.3,0-2.7,0-4,0-.6,0-.6,0-1.1,0-.5-.5-.4-1.5-.4-2.2h5.5c0,0,0-3.6,0-3.6-1.7,0-4.6.5-5.5-1,.2-1.8,4-1.3,5.4-1.3,0-1.4,0-2.8,0-4.2Z"/>
  <path class="st0" d="M20.7,152.4c3.2-.2,6.2-.2,9.4-.1,0,2,0,4.4,0,6.4l2.1-.2v3.1c-2,0-4.4.2-6.5.1-.4-.5-.2-.8-.2-1.6,0-.6,0-.9.2-1.5,1.9-1,1.4-2.1,1.4-4h-4.1c0,2.4,0,4.7.1,7.1h-2.5c-.2-2.8,0-6.4,0-9.4Z"/>
  <path class="st0" d="M226.8,92.7h2.4c0,0,0,9.6,0,9.6h-9.3c0-2.1.5-4.4-.2-6.1-.7-.5-.7-.4-1.8-.4v-3.1s6.6.2,6.6.2c0,.9,0,1.7-.2,2.5-.7.2-.6.2-1.2.7-.3,1.1-.2,2.5-.3,3.7h3.9c0-2.4,0-4.8,0-7.2Z"/>
  <path class="st0" d="M209.3,92.8h7c0,1.1.3,2.4-.6,3.2-.6-.2-.4-.2-.9-.2-.7,1-.4,5-.4,6.4-4.4.3-9.9-.2-14.2.2-.7,1.4-1.3,2.5-2,3.8,0-1.6.2-4.3.4-6,4,0,8.9-.1,13-.3,0-1.4.3-2.8-.3-3.9-.6-.5-1.1-.4-1.9-.4v-3Z"/>
  <path class="st0" d="M220.1,152.3c3,0,6.1,0,9,0,0,2.3,1,9.2-1.2,9.8-2.3-.8,0-5.8-1.2-7.4h-.6c0,0-3.1,0-3.1,0,0,1.5-.4,3.1.9,3.9.8.5.6,2.2.6,3-2.2,0-4.4,0-6.6,0,0-.8-.2-2.3.3-2.9.5,0,1,0,1.3-.4.8-.8.6-4.9.6-6.1Z"/>
  <path class="st0" d="M202.5,80.7c3.6-.2,7.9.2,11.6.3.2,2.1-.1,4.5.3,6.1.6.7.6.5,1.6.7v3c-2.2,0-4.7,0-6.9,0,0-.6,0-2.5,0-3.2h2.3c0-1.6,0-3.2,0-4.8-1.9-.2-12.6.5-13.1,0-.1-.9-.2-1,0-1.9.8-.2,3.3-.2,4.2-.2Z"/>
  <path class="st0" d="M34,92.7h6.6c0,2.8.2,2.2-1.5,3.6-.6.5-.4,2.8-.4,3.6,4.2,0,8.4,0,12.5.2v3c0,.7.2,1.2-.1,1.8h-.3c-.7-.9-1-1.7-1.4-2.8-4.5,0-9.1,0-13.6,0,0-2,0-4.2.1-6.2-.7,0-1.1,0-1.6-.5-.5-.7-.3-1.9-.3-2.8Z"/>
  <path class="st0" d="M40.7,80.9h.9c1.4,0,9.1-.2,9.8.5,0,.7.2.6,0,1.2-1.2.5-10.8.4-12.9.5,0,1.3,0,2.6,0,3.9,0,.2,0,.3,0,.5.6.3,1.4.1,2,0v3.2s-6.7,0-6.7,0c0-1.9-.4-2.6,1.5-3.4.4-1,0-4.9,0-6.3h5.1Z"/>
  <path class="st0" d="M26.8,80.7c1,0,2.4-.2,3.3.3.4,1.2.1,4.6.2,6.1,0,1.1,1,.6,1.9,1.2.3.9.2,1.3,0,2.2-.5.4-.6.2-1.3.3h-5.4c0-1.7-.5-2.7,1.4-3.2.5-1.2,0-5.1,0-6.8Z"/>
  <path class="st0" d="M219.9,80.8h3.5c0,1.6-.8,5.8-.3,6.7h1.3c.3,1,.6,2.4,0,3.2h-1c0,0-5.5,0-5.5,0,0-1.1-.4-2.3.5-3.1.5,0,.8,0,1.2-.2.7-1,.3-5.1.2-6.7Z"/>
  <path class="st0" d="M217.5,163.9c2.1,0,5.1.2,7.1,0,0,1.9.4,2.4-1.2,3.5-.8.6-.2,3.5-.1,4.6,0,.5.1.9-.2,1.3-.8.4-2.2.2-3.2.2v-6.1s-2.2-.3-2.2-.3c0-1-.2-2.1-.2-3.1Z"/>
  <path class="st0" d="M25.5,163.8h6.8c0,1.1,0,2.3,0,3.4-.7,0-1.5,0-2.2,0v4.2c.1.8.1,1.3-.4,1.9-.8.4-1.9.2-2.9.2.2-1.6.7-5.4-.4-6.4-.5,0-.3,0-.8-.1-.4-.8-.3-2-.3-3Z"/>
  <path class="st1" d="M194.5,26c4.4,2.8,10.5,8.5,14.4,12-3.7,3.3-9.4,9.4-13,13.1-1.8,1.9-3.7,3.7-5.6,5.6h-3.1c-.1-5.1,0-10.6,0-15.9,1.5-.1,5.9.2,6.8-.4,1-2.4.2-11,.5-14.3Z"/>
</svg>