<?xml version="1.0" encoding="UTF-8"?>
<svg id="Layer_1" xmlns="http://www.w3.org/2000/svg" version="1.1" viewBox="0 0 250 250">
  <!-- Generator: Adobe Illustrator 30.3.0, SVG Export Plug-In . SVG Version: 2.1.3 Build 182)  -->
  <defs>
    <style>
      .st0 {
        fill: #fefefe;
      }

      .st1 {
        fill: #004ba0;
      }
    </style>
  </defs>
  <circle class="st1" cx="125" cy="125" r="125"/>
  <g>
    <path class="st0" d="M200.2,74.3c.4,0,.4,0,.8,0,.4.4.3,1.1.2,1.6-1.1,3.5-3.7,22.4-5.1,24.3-1,.1-5.6-3.7-6.7-4.6-3.7,4.6-8.6,10-12.6,14.5-8.1,9.4-16.2,18.7-24.4,28-4.9,5.5-10.4,11.4-15.1,17-5.1-4.5-10.1-9.5-15.1-14-1.9-1.8-4.7-4.6-6.7-6.1-4.9,5.3-9.8,10.8-14.6,16.2l-35.8,40c-4.3,0-9.6.2-13.7,0h0c0-.1.4-.6.4-.6,2-2.4,4.4-5,6.5-7.4l13.5-15c14.5-16,28.8-32,43-48.2,7.1,6.7,14.5,13.3,21.5,20.1,1.8-1.9,3.7-4.1,5.4-6.1l10.7-12.2,28.8-32.8c-1.7-1.4-6.1-4.4-7.3-5.8,1.7-1.3,8.6-3.2,11-4,4.9-1.6,10.4-3.5,15.3-4.8Z"/>
    <path class="st0" d="M186.6,103.4c.1.8,0,6.2,0,7.4v80.4s-17.1,0-17.1,0c-.1-1.4,0-5.4,0-7v-14.4s0-46.8,0-46.8c3.3-3.8,6.6-7.7,9.9-11.5,2.2-2.5,4.9-5.7,7.2-8.1Z"/>
    <path class="st0" d="M48.7,95.4h38.3s0,34.1,0,34.1h-38.3s0-34.1,0-34.1Z"/>
    <path class="st1" d="M67,99.5c7.2-.6,13.6,4.7,14.2,11.9.6,7.2-4.7,13.6-11.9,14.2-7.2.7-13.6-4.7-14.3-11.9-.7-7.2,4.7-13.6,11.9-14.2Z"/>
    <path class="st0" d="M67.4,102.9c.5,0,1.1-.1,1.5.3.8.8.4,7.3.4,8.9,1.4,1.3,2.9,2.2,4.3,3.4,1,.8,1.4,1.7.4,2.7-1.7.5-4.9-2.8-6.2-3.9-1.9-1.6-.7-6.9-1-9.2-.1-.8,0-1.7.7-2.3Z"/>
    <path class="st0" d="M165.4,127.7c.3.5.2,11.7.2,13.5v50.1s-15.8,0-15.8,0c0,0,0-.1-.1-.2,0-11,0-35.8,0-45.3,1.7-2,3.7-4.2,5.4-6.2,3.5-3.9,7-7.9,10.4-11.8Z"/>
    <path class="st0" d="M51.8,132.2h32.2s0,17.7,0,17.7c-1.7,2.2-4.5,5.1-6.4,7.2,0-6.7,0-13.4,0-20.2h-2.6s0,23.1,0,23.1c-.9,1.1-2.2,2.4-3.1,3.6.1-8.8,0-17.9,0-26.7h-2.6c0,9.6.2,19.7,0,29.3-1,1.2-2.2,2.5-3.2,3.6v-23.9s0-9,0-9h-2.5v35.6c-.9,1.1-2.2,2.5-3.2,3.6v-39.2s-2.6,0-2.6,0v42.2c-2,2.1-4.3,4.7-6.1,6.9v-53.9Z"/>
    <path class="st0" d="M115.6,138.9c.5.3,2.5,2.1,3,2.6,2.3,2.1,4.6,4.2,6.9,6.4v43.2s-6.5,0-6.5,0h-10.2s0-44.9,0-44.9c2.2-2.5,4.5-4.9,6.7-7.3Z"/>
    <path class="st0" d="M145.4,150.4c.2.5,0,9.3,0,10.4v30.4s-15.9,0-15.9,0v-7s0-32.4,0-32.4c2.6,2.3,5.3,5.1,8,7.3,2.3-2.7,5.5-6.1,7.9-8.7Z"/>
    <path class="st0" d="M104.3,151.7c.3.3.2,35.7.2,39.5-1.6,0-15.3.1-15.8-.1v-22c1.3-1.6,2.9-3.3,4.3-4.8,3.7-4.2,7.7-8.3,11.3-12.5Z"/>
    <path class="st0" d="M71.1,198c1.5,0,3,0,4.5,0,0,2.2.1,6.5-.1,8.5,1.9-2.9,3.8-5.7,5.8-8.5h5.3s-6.3,8.2-6.3,8.2c2.2,3.6,4.5,7.1,6.8,10.7,1.5-2.3,3-4.7,4.5-7-1.3-2.2-3.1-4.7-4.5-6.9,1.5,0,3.2,0,4.7,0,.9,1.4,1.7,3.1,2.5,4.5.5-1.1,1.2-2.4,1.8-3.5l.6-1h4.6c-1.5,2.2-3,4.7-4.5,6.9,1.4,2.4,3.3,4.8,4.8,7.3h-4.9l-2.5-4.5c-.5,1.3-1.6,3.3-2.3,4.5h-9.9s-4.7-8.3-4.7-8.3l-1.5,2.1v6.1s-4.5,0-4.5,0v-19.2Z"/>
    <path class="st0" d="M140,197.8c4.7-.6,11.5.2,13.3,5.3,1.7,4.7.4,9.6-3.7,12.5-3.8,2.1-8.4,1.7-12.7,1.5v-19.1s3.1-.2,3.1-.2Z"/>
    <path class="st1" d="M141.6,201.2h.5c1.5,0,2.8,0,4.2.6,3.9,1.9,3.8,7.7,1.2,10.6-1.9,1.7-3.8,1.6-6.1,1.5,0-3.5,0-8.7,0-12.4,0,0,.1-.2.2-.3Z"/>
    <path class="st0" d="M154.3,28.7c4.3.1,6.4,3.1,6.8,7,.6,5.2-.4,11.1-6.5,12-5,0-6.9-3.6-7.2-8-.4-4.9.9-10.5,6.9-10.9Z"/>
    <path class="st1" d="M153.7,32.1c3-.3,3.3,3.3,3.3,5.5,0,2.3,0,5.4-2.1,6.7-3.6.6-3.3-6.5-3.1-8.6.2-1.5.6-2.7,1.8-3.6Z"/>
    <path class="st0" d="M137.4,28.8c3.9-.3,6.6,1.8,7.4,5.6,1.1,5,.4,11.7-5.4,13.2-4.3.5-7-1.9-7.8-6.1-.9-4.9,0-11.5,5.8-12.7Z"/>
    <path class="st1" d="M137.9,32.1c3.3,0,3.2,5.4,3,7.6-.1,1.9-.4,3.7-2.2,4.7-2.6.2-3.1-3.3-3.1-5.3,0-2.4-.1-5.6,2.2-7Z"/>
    <path class="st0" d="M128.9,198h4.1s0,13.2,0,13.2c0,1,0,5.1,0,5.9h-.3c0,0-4.2,0-4.2,0-2.6-4.6-5.3-9.3-7.5-14.1.5,3.3.4,10.5.4,14.1h-4.1v-19.1s4.9,0,4.9,0c2.8,4.8,4.9,8.3,7.3,13.3-.5-4-.3-9.1-.4-13.3Z"/>
    <path class="st0" d="M57.5,75.5c6.7-.2,14.3,0,21.1,0l5.2,7.8c-1.6,0-3.3,0-4.9,0h-26.1c1.1-2,3.5-5.8,4.8-7.8Z"/>
    <path class="st0" d="M68.1,39.7c.5.4,8.2,18.9,8.9,20.7-2.7,0-5.9,0-8.7,0-3,0-6,0-9,0,1.5-4.1,3.9-8.8,5.5-13,.4-1.1,2.9-7.1,3.4-7.8Z"/>
    <path class="st0" d="M51.8,85.8h32.2c0,2.3,0,4.8,0,7.1-2.1,0-4.3,0-6.4,0v-4.4s-2.6,0-2.6,0v4.3c-.4,0-2.6,0-3.1,0v-4.3s-2.6,0-2.6,0v4.3s-3.1,0-3.1,0c0-1.4,0-2.9,0-4.3h-2.6s0,4.3,0,4.3h-3.1s0-4.3,0-4.3h-2.6s0,4.3,0,4.3h-6.1s0-7.1,0-7.1Z"/>
    <path class="st0" d="M63,198h4.4s0,3.4,0,3.4c0,4,.8,10.9-2,13.9-2.7,2.9-8.8,3-11.7.2-.8-.8-1.4-1.8-1.7-2.9-.8-2.7-.5-11.4-.5-14.6h4.5s0,7.4,0,7.4c0,2.6-.5,8.6,3.3,8.6,4.3,0,3.7-5.4,3.7-8.3v-7.7Z"/>
    <path class="st0" d="M100.9,28.4c1.5,0,3,0,4.4,0,0,2.9,0,5.8,0,8.6.8-1.7,4.4-6.8,5.6-8.5,1.7,0,3.5,0,5.2,0-2,2.4-4.2,5.4-6.1,7.9,1.4,2.4,2.9,4.8,4.4,7.2.8,1.2,1.6,2.5,2.3,3.7-1.6,0-3.5,0-5.2,0-1.5-2.7-3.1-5.4-4.7-8.1-.6.7-1.1,1.4-1.6,2.2,0,1.8,0,4,0,5.9-1.5,0-3,0-4.4,0v-18.9Z"/>
    <path class="st0" d="M92.8,28.6h4.4s0,3.7,0,3.7c0,3.9.7,10.3-2.2,13.2-3.4,3.6-12,2.8-13.1-2.6-.9-4.3-.5-9.9-.5-14.3,1.5,0,3,0,4.5,0v7.3c0,.8,0,1.7,0,2.5,0,1.8,0,4,1.7,5.1,1.1.8,3,.8,4-.3,1.2-1.3,1.3-3.1,1.3-4.8,0-3.3,0-6.6,0-9.9Z"/>
    <path class="st0" d="M161.2,197.8c2.5,0,5.2,0,7.7,0v3.5s-7.5,0-7.5,0v3.9s7.1,0,7.1,0v3.6h-7.1c0,.9-.2,3.9.2,4.5h.5c0,0,7.3,0,7.3,0v3.7s-12.4,0-12.4,0v-19.1c1.4-.1,2.9-.2,4.3-.2Z"/>
    <path class="st0" d="M170.9,197.9h5.2c1.1,2.2,2.3,4.7,3.2,7,.8-2.3,2-4.8,3-7,1.7,0,3.4,0,5.1,0-1.7,3-3.9,6.3-5.8,9.2,2,3.3,4,6.7,6,10-1,.1-4.1,0-5.3,0-1.1-2-2.4-4.8-3.5-7-.7,2.4-1.8,4.7-2.9,7h-5.2c1.9-3.3,3.9-6.6,5.7-9.8-1.9-3.1-3.8-6.3-5.7-9.4Z"/>
    <path class="st0" d="M149.5,102.8c5.1,0,10.4,0,15.5,0-2.7,3.1-5.5,6.2-8.2,9.4-2.4,2.6-5.1,5.7-7.3,8.4v-17.8Z"/>
    <path class="st0" d="M58.6,62.7c6.1-.1,12.7,0,18.9,0v10.2s-3,0-3,0v-7.7s-2.4,0-2.4,0v7.7s-2.6,0-2.6,0h0c-.2-.4-.1-6.8-.1-7.7h-2.5c0,2.6,0,5.2,0,7.7h-2.8s0-7.7,0-7.7h-2.4s0,7.7,0,7.7h-3s0-10.2,0-10.2Z"/>
    <path class="st0" d="M83.9,174.2c.2.6,0,4.4,0,5.3v11.7s-15.1,0-15.1,0c0-.8,13.2-14.8,15-16.9Z"/>
    <path class="st0" d="M123.8,29.1c1.1-.1,2.4,0,3.5,0v18.3s-4.2,0-4.2,0v-2.7s0-11.7,0-11.7c-1.2.5-2.5,1.2-3.7,1.7-.4-1.1-.6-2.4-.8-3.5,1.8-.8,3.5-1.5,5.3-2.3Z"/>
    <path class="st0" d="M129.8,125.7c5.1,0,10.2,0,15.3,0-1.7,1.9-3.4,3.8-5.1,5.8l-4.1,4.6c-1.4-1.7-4.6-4.6-6.3-6.2,0-.8-.2-3.8.2-4.2Z"/>
    <path class="st0" d="M109.2,198h4.5s0,19.1,0,19.1h-4.5s0-19.1,0-19.1Z"/>
    <path class="st0" d="M115.8,117.1c3.1.1,6.5,0,9.7,0v8.8c-.4,0-8.8-7.9-9.7-8.8Z"/>
    <path class="st0" d="M88.6,135.7h8.4s-4.3,4.9-4.3,4.9c-1.4,1.5-2.7,3-4.1,4.6,0-3,0-6.4,0-9.4Z"/>
    <path class="st0" d="M169.7,89.6c2.3,0,4.7,0,7,0-1.3,1.5-2.6,2.9-3.9,4.4-1.1,1.2-2.2,2.6-3.3,3.8,0-1.2-.2-7.7.2-8.2Z"/>
    <path class="st0" d="M108.9,117.1h4.3c-.7.8-1.4,1.6-2.1,2.4l-2.2,2.4c0-1.5,0-3.3,0-4.8Z"/>
  </g>
</svg>