<?xml version="1.0" encoding="UTF-8"?>
<svg id="Layer_1" xmlns="http://www.w3.org/2000/svg" version="1.1" viewBox="0 0 250 250">
  <!-- Generator: Adobe Illustrator 30.3.0, SVG Export Plug-In . SVG Version: 2.1.3 Build 182)  -->
  <defs>
    <style>
      .st0 {
        fill: #e26c00;
      }

      .st1 {
        fill: #002c69;
      }

      .st2 {
        fill: #b9100e;
      }

      .st3 {
        fill: #feba1f;
      }

      .st4 {
        fill: #f49204;
      }

      .st5 {
        fill: #d1d2ce;
      }

      .st6 {
        fill: #7e2b00;
      }

      .st7 {
        fill: #bf4900;
      }

      .st8 {
        fill: #f99c03;
      }

      .st9 {
        fill: #fdfdfd;
      }
    </style>
  </defs>
  <path class="st1" d="M119,.2c.1,0,.3,0,.4,0,6.5-.4,14.5,0,20.9.8,25.5,2.9,49.4,13.5,68.6,30.4,24.4,21.4,39.1,51.7,40.9,83.9,2,32.5-9.3,64.5-31.3,88.8-22.4,24.9-53.9,39.8-87.4,41.4-33,1.5-65.3-9.8-89.9-31.7C-9.6,168.2-14.2,90.8,31.9,40.4,54.7,15.5,85.2,1.8,119,.2Z"/>
  <path class="st5" d="M118.9,33.9c49.8-3.3,92.8,34,96.1,83.3,3.3,49.3-34.3,92-84.1,95.3-49.8,3.3-92.8-34-96.1-83.3-3.3-49.3,34.3-92,84-95.3Z"/>
  <path class="st2" d="M122.7,38.6c47.1-1.2,86.3,35.5,87.6,82.2,1.3,46.7-35.8,85.6-82.9,86.9-47.2,1.4-86.5-35.5-87.8-82.2-1.3-46.7,35.9-85.7,83-86.9Z"/>
  <path class="st5" d="M120.3,61.6c34.3-2.6,64.3,23,66.8,57,2.6,34-23.2,63.7-57.6,66.2-34.3,2.5-64.2-23-66.7-57-2.6-34,23.2-63.6,57.5-66.2Z"/>
  <path class="st9" d="M120.8,66.4c31.7-2.3,59.2,21.3,61.4,52.7,2.3,31.4-21.6,58.6-53.2,60.9-31.6,2.2-59.1-21.4-61.4-52.7-2.3-31.4,21.5-58.6,53.2-60.9Z"/>
  <path class="st6" d="M125,71.2c0,0,.2,0,.2.1,11.6,16.3,23.5,34.4,31,52.8,2.4,5.9,3.1,10.1,3.3,14,.4,8.7-2.8,17.2-8.8,23.6-7,7.5-15.4,10.6-25.4,11-6.6.3-14.7-2.4-20.1-6.1-7.4-5-12.5-12.7-14.1-21.5-.8-4.7-.7-9.5.5-14.1,1.8-7.7,6.7-17,10.5-23.9,7-12.4,14.6-24.4,22.8-35.9Z"/>
  <path class="st3" d="M124.8,76.9l.2-.2c.5.4.6.7.9,1.3,1,1.2,2,2.8,2.9,4.1,7.5,11.3,15,22.7,21,34.9.4.8.8,1.6,1.1,2.5l.4.7c3,5.8,5.3,13.2,5.2,19.7,0,5.2-1.5,10.4-4.3,14.8-.3.4-1.3,2-1.6,2.3-.4.9-1.2,1.7-1.9,2.5-5.8,6.4-14.3,9.9-22.9,10.1h-.5c-1.3,0-2.5,0-3.7-.2-8.8-1.1-16.1-5.2-21.5-12.2h0c-4.4-5.3-5.5-11.2-6.2-17.6.3-5.6,1.2-9.6,3.3-15,.6-1.6,1.5-3.2,2.1-4.8l.5-.8c6.2-13,16.8-29.1,24.7-41.2l.5-.9Z"/>
  <path class="st4" d="M140.4,112.2c1.6,1.3,3.9,2.8,5.6,4,1.3.9,3.6,2.6,4.8,3.3l.4.7c3,5.8,5.3,13.2,5.2,19.7,0,5.2-1.5,10.4-4.3,14.8-.3.4-1.3,2-1.6,2.3-1.4,0-10.4,2-11.7,2.6v-10.4c0-5.9-.2-13.2,0-19.1.1-.5.3-3.4.3-4.2.2-2.8.5-5.6.8-8.4.2-1.8.2-3.5.6-5.3Z"/>
  <path class="st0" d="M156.4,139.8c0,5.2-1.5,10.4-4.3,14.8-.3.4-1.3,2-1.6,2.3-1.4,0-10.4,2-11.7,2.6v-10.4c2.1-1,8.4-7.2,9.9-7.7,1.7-.5,6.1-1.4,7.7-1.6Z"/>
  <path class="st7" d="M156.4,139.8c0,5.2-1.5,10.4-4.3,14.8-.3.4-1.3,2-1.6,2.3-.3-.7-1.6-13.8-1.8-15.6,1.7-.5,6.1-1.4,7.7-1.6Z"/>
  <path class="st0" d="M151.2,120.1c3,5.8,5.3,13.2,5.2,19.7-1.6.2-6,1.1-7.7,1.6.2-4.9,1-10.6,1.6-15.5.1-1.2.6-4.7.9-5.8Z"/>
  <path class="st8" d="M124.8,76.9l.2-.2c.5.4.6.7.9,1.3,1,1.2,2,2.8,2.9,4.1,7.5,11.3,15,22.7,21,34.9.4.8.8,1.6,1.1,2.5-1.2-.7-3.5-2.5-4.8-3.3-1.8-1.2-4.1-2.6-5.6-4-.4,1.8-.4,3.5-.6,5.3-.3,2.8-.6,5.6-.8,8.4,0,.8-.2,3.7-.3,4.2-1.1-2-2.3-5.1-3.3-7.2l-6.1-13.6c-1.4-3.1-2.7-6.4-4.3-9.4.1-.9,0-3.8,0-4.8v-9.8c0-1.3,0-7.8-.2-8.3Z"/>
  <path class="st0" d="M140.4,112.2c-1.1-1.4-3.3-7-4.1-9l-8.4-19.5c-.4-1-2.7-5.5-2.7-6h.1c.2.3.3.4.5.7v-.3c1.1,1.2,2.1,2.8,3,4.1,7.5,11.3,15,22.7,21,34.9.4.8.8,1.6,1.1,2.5-1.2-.7-3.5-2.5-4.8-3.3-1.8-1.2-4.1-2.6-5.6-4Z"/>
  <path class="st0" d="M138.8,159.5c1.3-.5,10.3-2.5,11.7-2.6-.4.9-1.2,1.7-1.9,2.5-5.8,6.4-14.3,9.9-22.9,10.1h-.5c-1.3,0-2.5,0-3.7-.2-8.8-1.1-16.1-5.2-21.5-12.2,2.9.4,8.8,1.6,11.6,2.5h.3c4.2-.2,10-1.6,13.7-1.7,2.5,0,9.8,1.4,12.8,1.8h.4Z"/>
  <path class="st7" d="M100,157.1c2.9.4,8.8,1.6,11.6,2.5h.3c2.7,2.4,6.7,4.8,9.6,7,1.2,1,2.7,1.8,3.7,2.9-1.3,0-2.5,0-3.7-.2-8.8-1.1-16.1-5.2-21.5-12.2Z"/>
  <path class="st7" d="M138.8,159.5c1.3-.5,10.3-2.5,11.7-2.6-.4.9-1.2,1.7-1.9,2.5-5.8,6.4-14.3,9.9-22.9,10.1,3.1-3,9.1-6.7,12.6-9.9h.4Z"/>
  <path class="st3" d="M99.5,119c.9-.3,9.3-6.4,10.4-7.3,0,1.6,1.3,17.7,1.7,18.2h0c-.6.5-1.8,1.9-2.3,2.5l-5.4,6.5c-.4.5-1.9,2.4-2.3,2.8h-.2c-2-.9-5.3-1.2-7.4-1.8,0-.1-.2-.3-.3-.4.3-5.6,1.2-9.6,3.3-15,.6-1.6,1.5-3.2,2.1-4.8l.5-.8Z"/>
  <path class="st0" d="M99.1,119.8c1.1,6.5,2,15.3,2.4,21.8-2-.8-5.3-1.1-7.4-1.7,0-.1-.2-.3-.3-.4.3-5.6,1.2-9.6,3.3-15,.6-1.6,1.5-3.2,2.1-4.8Z"/>
  <path class="st0" d="M93.7,139.5c0,.1.2.3.3.4,2.2.6,5.4.9,7.4,1.7h.2c0,.1,0,.2,0,.2,2.7,1.6,7.2,5.4,9.9,7.4v.2c0,3.3.2,6.9.2,10.3-2.8-.9-8.7-2.1-11.6-2.5h0c-4.4-5.3-5.5-11.2-6.2-17.6Z"/>
  <path class="st7" d="M93.7,139.5c0,.1.2.3.3.4,2.2.6,5.4.9,7.4,1.7h.2c0,.1,0,.2,0,.2-.4,1.4-.7,5.1-.9,6.7-.2,2.8-.6,5.7-.8,8.5-4.4-5.2-5.5-11.1-6.2-17.5Z"/>
  <path class="st4" d="M124.3,77.8c0,.5,0,1-.2,1.4-4.2,10.6-9.3,20.9-13.6,31.4l-.5,1.1c-1.1.9-9.5,6.9-10.4,7.3,6.2-13,16.8-29.1,24.7-41.2Z"/>
  <path class="st8" d="M124.7,100c-.1,1.1-2.8,6.7-3.4,8.2-3.2,7.2-6.5,14.4-9.8,21.6-.3-.5-1.7-16.6-1.7-18.2l.5-1.1c.6-.2,13.1-9.6,14.3-10.6Z"/>
  <path class="st8" d="M138.8,149.1v10.4s-.4,0-.4,0c-3-.3-10.3-1.9-12.8-1.8-3.7.1-9.5,1.5-13.7,1.8h-.3c0-3.4,0-7-.1-10.3,2.8,1.4,5.5,3.3,8.3,4.8,1.8,1,3.7,2.2,5.5,3.3,1.5-1.2,4.2-2.7,5.8-3.7l7.7-4.6Z"/>
  <path class="st4" d="M101.6,141.7c.4-.3,1.9-2.3,2.3-2.8l5.4-6.5c.5-.6,1.6-2.1,2.3-2.5,0,6.4,0,12.9,0,19.3-2.7-2-7.2-5.9-9.9-7.4h0Z"/>
</svg>