<svg width="136" height="48" viewBox="0 0 136 48" fill="none" xmlns="http://www.w3.org/2000/svg">
<g clip-path="url(#clip0_52609_2241)">
<path d="M17.711 34.8529C14.7133 34.8529 12.1045 34.3322 9.88452 33.2908C7.66457 32.2495 5.81732 30.8827 4.35896 29.1905C2.8844 27.4983 1.79873 25.6434 1.06955 23.6583C0.356578 21.6732 -0.0161133 19.7532 -0.0161133 17.882V16.8895C-0.0161133 14.8068 0.356578 12.7729 1.10196 10.7715C1.84734 8.77017 2.98162 6.96407 4.47239 5.33695C5.96315 3.70983 7.82661 2.42441 10.0304 1.44814C12.2341 0.488136 14.7943 0 17.6948 0C20.5953 0 23.107 0.488136 25.3107 1.44814C27.5144 2.40814 29.3617 3.70983 30.8687 5.33695C32.3594 6.96407 33.4937 8.77017 34.2553 10.7715C35.0169 12.7729 35.4058 14.8068 35.4058 16.8895V17.882C35.4058 19.7532 35.0331 21.6732 34.3039 23.6583C33.5747 25.6434 32.4729 27.482 30.9983 29.1905C29.5237 30.899 27.6927 32.2658 25.4727 33.2908C23.2528 34.3322 20.6602 34.8529 17.6948 34.8529H17.711ZM17.711 26.9939C19.1532 26.9939 20.4333 26.7498 21.5838 26.278C22.7181 25.7898 23.6903 25.1227 24.5005 24.2441C25.3107 23.3654 25.9265 22.3566 26.3478 21.2014C26.7691 20.0461 26.9797 18.7932 26.9797 17.4264C26.9797 15.9783 26.7691 14.6766 26.3316 13.5051C25.894 12.3336 25.2783 11.3247 24.4681 10.4786C23.6579 9.63254 22.6857 8.9817 21.5514 8.54237C20.4171 8.08678 19.137 7.85898 17.7272 7.85898C16.3175 7.85898 15.005 8.08678 13.8545 8.54237C12.7202 8.99797 11.748 9.64881 10.9378 10.4786C10.1276 11.3247 9.51183 12.3336 9.09052 13.5051C8.66922 14.6766 8.45857 15.9946 8.45857 17.4264C8.45857 18.777 8.66922 20.0298 9.09052 21.2014C9.51183 22.3566 10.1276 23.3817 10.9378 24.2441C11.748 25.1227 12.7202 25.7898 13.8545 26.278C14.9888 26.7661 16.2851 26.9939 17.7272 26.9939H17.711Z" fill="#F54A14"/>
<path d="M37.1401 7.48476V1.82238C37.1401 1.36679 37.5128 0.992554 37.9665 0.992554H62.6614C63.1151 0.992554 63.4878 1.36679 63.4878 1.82238V7.48476C63.4878 7.94035 63.1151 8.31459 62.6614 8.31459H37.9665C37.5128 8.31459 37.1401 7.94035 37.1401 7.48476ZM46.1333 33.1281V8.23323C46.1333 7.77764 46.506 7.4034 46.9597 7.4034H53.6844C54.1381 7.4034 54.5108 7.77764 54.5108 8.23323V33.1281C54.5108 33.5837 54.1381 33.958 53.6844 33.958H46.9597C46.506 33.958 46.1333 33.5837 46.1333 33.1281Z" fill="#F54A14"/>
<path d="M82.1384 34.8529C79.1731 34.8529 76.6291 34.3322 74.4901 33.2908C72.3674 32.2495 70.6012 30.8827 69.2238 29.1905C67.8465 27.4983 66.8257 25.6434 66.1613 23.6583C65.4969 21.6732 65.1729 19.7532 65.1729 17.882V16.8895C65.1729 14.8068 65.5131 12.7729 66.1775 10.7715C66.8581 8.77017 67.8789 6.96407 69.2725 5.33695C70.666 3.70983 72.416 2.42441 74.5063 1.44814C76.5967 0.488136 79.0597 0 81.8791 0C84.8769 0 87.5343 0.569492 89.8515 1.6922C92.1687 2.81492 94.0321 4.39322 95.4419 6.42712C96.6572 8.18441 97.4512 10.1858 97.7915 12.4312C97.8725 12.9844 97.435 13.4888 96.884 13.4888H90.5645C89.9811 13.4888 89.495 13.0983 89.3168 12.5451C89.0737 11.7803 88.701 11.1132 88.1987 10.5112C87.5019 9.66508 86.6269 9.01424 85.5413 8.54237C84.4556 8.07051 83.2403 7.84271 81.8467 7.84271C80.5504 7.84271 79.3999 8.07051 78.3629 8.5261C77.3258 8.9817 76.467 9.61627 75.754 10.4461C75.0573 11.2759 74.5063 12.2685 74.1336 13.44C73.761 14.6115 73.5665 15.9458 73.5665 17.4102C73.5665 18.8746 73.761 20.2088 74.1336 21.3803C74.5063 22.5519 75.0573 23.5607 75.8027 24.4068C76.5318 25.2529 77.4231 25.8875 78.4763 26.3268C79.5296 26.7661 80.7287 26.9776 82.0736 26.9776C84.1639 26.9776 85.9463 26.4732 87.4047 25.4481C88.6038 24.602 89.414 23.5119 89.8353 22.1939C89.9973 21.6732 90.4835 21.3315 91.0344 21.3315H97.354C97.9211 21.3315 98.3586 21.8522 98.2614 22.4217C97.8887 24.4719 97.1271 26.3593 95.9442 28.1003C94.5669 30.1505 92.7034 31.7776 90.37 32.998C88.0367 34.2183 85.282 34.8203 82.0898 34.8203L82.1384 34.8529Z" fill="#F54A14"/>
<path d="M102.863 33.2258V1.70849C102.863 1.31798 103.187 0.992554 103.576 0.992554H116.102C116.394 0.992554 116.653 1.17154 116.766 1.43188L127.331 26.8312C127.445 27.0915 127.704 27.2705 127.996 27.2705H128.19V27.1078V1.70849C128.19 1.31798 128.514 0.992554 128.903 0.992554H135.304C135.693 0.992554 136.017 1.31798 136.017 1.70849V33.2258C136.017 33.6163 135.693 33.9417 135.304 33.9417H122.697C122.405 33.9417 122.146 33.7627 122.033 33.5024L111.468 8.10306C111.354 7.84272 111.095 7.66374 110.803 7.66374H110.609V7.82645V33.2258C110.609 33.6163 110.285 33.9417 109.896 33.9417H103.592C103.204 33.9417 102.879 33.6163 102.879 33.2258H102.863Z" fill="#F4F7F8"/>
<path d="M23.4634 47.8373L26.0074 40.9058H27.2875L29.9126 47.8373H29.1672L26.7204 41.3614L27.1093 41.5566H26.1208L26.5259 41.3614L24.1764 47.8373H23.4634ZM24.8245 45.6244L25.0676 44.9736H28.276L28.519 45.6244H24.8245Z" fill="#F4F7F8"/>
<path d="M34.5468 48C34.1255 48 33.7528 47.9186 33.4449 47.7722C33.137 47.6257 32.8778 47.4142 32.6671 47.1701C32.4565 46.9261 32.3106 46.6332 32.1972 46.324C32.0838 46.0149 32.0352 45.7057 32.0352 45.3803V45.2501C32.0352 44.9247 32.0838 44.6155 32.1972 44.3064C32.2944 43.9972 32.4565 43.7206 32.6671 43.4766C32.8778 43.2325 33.137 43.021 33.4449 42.8745C33.7528 42.7281 34.1255 42.6467 34.5306 42.6467C34.9357 42.6467 35.3246 42.7281 35.6486 42.8745C35.9727 43.021 36.232 43.2488 36.4426 43.5254C36.6533 43.802 36.7667 44.1274 36.7991 44.5179H36.1186C36.0537 44.1762 35.8917 43.8833 35.6324 43.6555C35.357 43.4277 35.0005 43.3139 34.5468 43.3139C34.1417 43.3139 33.8176 43.4115 33.5583 43.5905C33.2991 43.7694 33.1046 44.0135 32.9588 44.3227C32.8292 44.6318 32.7643 44.9735 32.7643 45.3477C32.7643 45.722 32.8292 46.0637 32.9588 46.3728C33.0884 46.682 33.2829 46.9423 33.5583 47.1213C33.8338 47.3003 34.1579 47.3979 34.563 47.3979C34.8709 47.3979 35.1463 47.3491 35.3732 47.2352C35.6 47.1213 35.7945 46.9749 35.9241 46.7796C36.0699 46.5844 36.151 46.3728 36.1672 46.145H36.8477C36.8153 46.5193 36.7019 46.861 36.4913 47.1376C36.2806 47.4142 36.0051 47.642 35.6648 47.7884C35.3246 47.9349 34.9519 48.0162 34.5306 48.0162L34.5468 48Z" fill="#F4F7F8"/>
<path d="M39.4889 47.8374V42.8096H40.056V44.9085H39.9912C39.9912 44.1763 40.1532 43.6231 40.4773 43.2814C40.8014 42.9235 41.3037 42.7607 41.9843 42.7607H42.1463V43.4116H41.8546C41.3199 43.4116 40.8986 43.558 40.6069 43.8346C40.3153 44.1113 40.1856 44.5343 40.1856 45.0713V47.8536H39.4727L39.4889 47.8374Z" fill="#F4F7F8"/>
<path d="M46.7966 48.0001C46.3753 48.0001 45.9864 47.9188 45.6623 47.7723C45.3383 47.6259 45.0628 47.4306 44.8359 47.1703C44.6091 46.9262 44.447 46.6334 44.3174 46.3242C44.1878 46.0151 44.1392 45.6896 44.1392 45.3805V45.2503C44.1392 44.9249 44.204 44.6157 44.3174 44.2903C44.4308 43.9812 44.6091 43.6883 44.8359 43.4442C45.0628 43.2001 45.3383 43.0049 45.6623 42.8422C45.9864 42.6957 46.3591 42.6144 46.7804 42.6144C47.2017 42.6144 47.5744 42.6957 47.8985 42.8422C48.2226 42.9886 48.498 43.1839 48.7249 43.4442C48.9517 43.6883 49.13 43.9649 49.2434 44.2903C49.3568 44.5995 49.4217 44.9249 49.4217 45.2503V45.3805C49.4217 45.7059 49.3568 46.0151 49.2434 46.3242C49.13 46.6334 48.9679 46.91 48.7411 47.1703C48.5142 47.4144 48.2388 47.6259 47.9147 47.7723C47.5906 47.9188 47.2017 48.0001 46.7804 48.0001H46.7966ZM46.7966 47.3656C47.2179 47.3656 47.5582 47.2679 47.8499 47.089C48.1415 46.91 48.3522 46.6496 48.5142 46.3405C48.6601 46.0313 48.7411 45.6896 48.7411 45.3154C48.7411 44.9412 48.6601 44.5995 48.5142 44.2903C48.3522 43.9812 48.1415 43.7371 47.8499 43.5581C47.5582 43.3791 47.2179 43.2815 46.8128 43.2815C46.4077 43.2815 46.0674 43.3791 45.7758 43.5581C45.4841 43.7371 45.2572 43.9812 45.1114 44.2903C44.9494 44.5995 44.8845 44.9412 44.8845 45.3154C44.8845 45.6896 44.9656 46.0313 45.1114 46.3405C45.2572 46.6496 45.4841 46.8937 45.7758 47.089C46.0674 47.2679 46.4077 47.3656 46.829 47.3656H46.7966Z" fill="#F4F7F8"/>
<path d="M53.7975 47.9837C53.1493 47.9837 52.6632 47.8372 52.3067 47.5606C51.9664 47.284 51.7882 46.8935 51.772 46.4216H52.4363C52.4363 46.6657 52.5498 46.8772 52.7604 47.0725C52.9711 47.2677 53.3113 47.3654 53.7813 47.3654C54.235 47.3654 54.5591 47.2677 54.7859 47.0888C55.0128 46.9098 55.1262 46.682 55.1262 46.4054C55.1262 46.1613 55.029 45.9661 54.8507 45.8359C54.6725 45.7057 54.397 45.6081 54.0405 45.5755L53.4734 45.5105C53.0197 45.4616 52.647 45.3152 52.3715 45.0874C52.0961 44.8596 51.9502 44.5342 51.9502 44.1274C51.9502 43.8345 52.0312 43.5742 52.1771 43.3464C52.3229 43.1186 52.5336 42.9559 52.809 42.8257C53.0845 42.6955 53.4086 42.6467 53.7813 42.6467C54.316 42.6467 54.7535 42.7769 55.0938 43.021C55.4341 43.2813 55.5961 43.6393 55.6123 44.1111H54.948C54.948 43.8671 54.8345 43.6718 54.6401 43.5091C54.4456 43.3464 54.154 43.265 53.7813 43.265C53.4086 43.265 53.1007 43.3464 52.9063 43.5254C52.7118 43.7044 52.6146 43.8996 52.6146 44.1599C52.6146 44.3715 52.6794 44.5342 52.8252 44.6806C52.9711 44.8108 53.1979 44.9084 53.5058 44.9247L54.0729 44.9898C54.5753 45.0549 54.9966 45.185 55.3044 45.4291C55.6285 45.6569 55.7906 45.9986 55.7906 46.4379C55.7906 46.7308 55.7095 47.0074 55.5475 47.2352C55.3855 47.463 55.1424 47.6583 54.8345 47.7884C54.5266 47.9186 54.1702 47.9837 53.7813 47.9837H53.7975Z" fill="#F4F7F8"/>
<path d="M60.1329 47.9837C59.4848 47.9837 58.9986 47.8372 58.6421 47.5606C58.3019 47.284 58.1236 46.8935 58.1074 46.4216H58.7718C58.7718 46.6657 58.8852 46.8772 59.0959 47.0725C59.3065 47.2677 59.6468 47.3654 60.1167 47.3654C60.5704 47.3654 60.8945 47.2677 61.1214 47.0888C61.3482 46.9098 61.4616 46.682 61.4616 46.4054C61.4616 46.1613 61.3644 45.9661 61.1862 45.8359C61.0079 45.7057 60.7325 45.6081 60.376 45.5755L59.8088 45.5105C59.3551 45.4616 58.9824 45.3152 58.707 45.0874C58.4315 44.8596 58.2857 44.5342 58.2857 44.1274C58.2857 43.8345 58.3667 43.5742 58.5125 43.3464C58.6584 43.1186 58.869 42.9559 59.1445 42.8257C59.4199 42.6955 59.744 42.6467 60.1167 42.6467C60.6514 42.6467 61.089 42.7769 61.4292 43.021C61.7695 43.2813 61.9316 43.6393 61.9478 44.1111H61.2834C61.2834 43.8671 61.17 43.6718 60.9755 43.5091C60.7811 43.3464 60.4894 43.265 60.1167 43.265C59.744 43.265 59.4361 43.3464 59.2417 43.5254C59.0473 43.7044 58.95 43.8996 58.95 44.1599C58.95 44.3715 59.0148 44.5342 59.1607 44.6806C59.3065 44.8108 59.5334 44.9084 59.8412 44.9247L60.4084 44.9898C60.9107 45.0549 61.332 45.185 61.6399 45.4291C61.964 45.6569 62.126 45.9986 62.126 46.4379C62.126 46.7308 62.045 47.0074 61.8829 47.2352C61.7209 47.463 61.4778 47.6583 61.17 47.7884C60.8621 47.9186 60.5056 47.9837 60.1167 47.9837H60.1329Z" fill="#F4F7F8"/>
<path d="M68.5752 47.8373V40.9058H69.515L71.6864 45.7058H71.8646L74.0359 40.9058H74.992V47.8373H74.279V41.703H74.3438L72.2373 46.3729H71.2975L69.1909 41.7193H69.272V47.8373H68.6076H68.5752Z" fill="#F4F7F8"/>
<path d="M79.6585 47.9674C79.302 47.9674 78.9941 47.9024 78.7187 47.7722C78.4432 47.642 78.2326 47.463 78.0867 47.219C77.9409 46.9749 77.8599 46.682 77.8599 46.3403C77.8599 45.9986 77.9409 45.722 78.0867 45.4779C78.2488 45.2501 78.4594 45.0712 78.7511 44.941C79.0428 44.8108 79.3992 44.762 79.8205 44.762H81.2951V45.299H79.7881C79.383 45.299 79.0914 45.3966 78.8807 45.5918C78.6701 45.7871 78.5566 46.0312 78.5566 46.3403C78.5566 46.6495 78.6701 46.9098 78.8807 47.0888C79.1076 47.2678 79.3992 47.3654 79.7719 47.3654C79.9988 47.3654 80.2256 47.3166 80.4363 47.2352C80.6469 47.1539 80.8252 47.0074 80.971 46.7959C81.1169 46.5844 81.1979 46.3078 81.2141 45.9498L81.4247 46.2427C81.3923 46.6169 81.3113 46.9261 81.1655 47.1864C81.0196 47.4305 80.809 47.6257 80.5497 47.7559C80.2905 47.8861 79.9826 47.9512 79.6423 47.9512L79.6585 47.9674ZM81.3437 47.8373V46.324H81.2303V44.5342C81.2303 44.16 81.1331 43.8671 80.9386 43.6718C80.7442 43.4766 80.4363 43.379 80.0312 43.379C79.8367 43.379 79.6585 43.379 79.4641 43.379C79.2696 43.379 79.0914 43.379 78.9131 43.3952C78.7349 43.3952 78.589 43.4115 78.4594 43.4278V42.7932C78.6052 42.7932 78.7349 42.7607 78.8807 42.7607C79.0266 42.7607 79.1724 42.7444 79.3344 42.7444C79.4965 42.7444 79.6423 42.7444 79.7881 42.7444C80.3067 42.7444 80.7118 42.8095 81.0196 42.9396C81.3275 43.0698 81.5544 43.2651 81.7002 43.5417C81.846 43.8183 81.9109 44.16 81.9109 44.6156V47.8535H81.3437V47.8373Z" fill="#F4F7F8"/>
<path d="M85.0064 47.8374V42.8096H85.5736V44.9085H85.5088C85.5088 44.1763 85.6708 43.6231 85.9949 43.2814C86.319 42.9235 86.8213 42.7607 87.5018 42.7607H87.6639V43.4116H87.3722C86.8375 43.4116 86.4162 43.558 86.1245 43.8346C85.8328 44.1113 85.7032 44.5343 85.7032 45.0713V47.8536H84.9902L85.0064 47.8374Z" fill="#F4F7F8"/>
<path d="M90.1426 47.8373V40.9058H90.8556V47.8373H90.1426ZM93.5616 47.8373L91.5523 45.478H90.7421L93.1241 42.8095H93.8857L91.763 45.2014L91.8116 44.8108L94.4204 47.8373H93.594H93.5616Z" fill="#F4F7F8"/>
<path d="M98.6663 48.0001C98.245 48.0001 97.8723 47.9188 97.5482 47.7723C97.2404 47.6259 96.9811 47.4306 96.7705 47.1703C96.576 46.9262 96.414 46.6333 96.3167 46.3242C96.2195 46.015 96.1709 45.6896 96.1709 45.3642V45.234C96.1709 44.9086 96.2195 44.5994 96.3167 44.2903C96.414 43.9811 96.5598 43.7045 96.7705 43.4604C96.9649 43.2164 97.2242 43.0211 97.532 42.8584C97.8399 42.6957 98.1964 42.6306 98.6015 42.6306C99.12 42.6306 99.5575 42.7445 99.914 42.9886C100.271 43.2164 100.53 43.5255 100.708 43.8835C100.886 44.2415 100.967 44.632 100.967 45.055V45.4293H96.495V44.876H100.481L100.303 45.1526C100.303 44.7784 100.238 44.453 100.108 44.1764C99.9788 43.8998 99.7844 43.672 99.5413 43.5093C99.2983 43.3465 98.9742 43.2652 98.6015 43.2652C98.2126 43.2652 97.8885 43.3628 97.6293 43.5418C97.37 43.7208 97.1755 43.9648 97.0459 44.274C96.9163 44.5832 96.8515 44.9249 96.8515 45.3154C96.8515 45.7059 96.9163 46.0476 97.0459 46.3567C97.1755 46.6659 97.37 46.9262 97.6455 47.1052C97.9209 47.2842 98.245 47.3818 98.6663 47.3818C99.1038 47.3818 99.4603 47.2842 99.7196 47.0889C99.995 46.8937 100.157 46.6496 100.222 46.373H100.886C100.821 46.7147 100.692 46.9913 100.481 47.2354C100.287 47.4794 100.027 47.6747 99.7196 47.8048C99.4117 47.935 99.0552 48.0001 98.6663 48.0001Z" fill="#F4F7F8"/>
<path d="M102.879 43.3463V42.8094H106.266V43.3463H102.879ZM105.472 47.886C105.131 47.886 104.823 47.8372 104.58 47.7396C104.337 47.6419 104.127 47.4629 103.997 47.2189C103.851 46.9748 103.786 46.6494 103.786 46.2426V41.2311H104.467V46.3565C104.467 46.6494 104.548 46.8772 104.71 47.0236C104.872 47.1863 105.099 47.2514 105.374 47.2514H106.266V47.9023H105.472V47.886Z" fill="#F4F7F8"/>
<path d="M110.511 47.9837C109.863 47.9837 109.377 47.8372 109.021 47.5606C108.68 47.284 108.502 46.8935 108.486 46.4216H109.15C109.15 46.6657 109.264 46.8772 109.474 47.0725C109.685 47.2677 110.025 47.3654 110.495 47.3654C110.949 47.3654 111.273 47.2677 111.5 47.0888C111.727 46.9098 111.84 46.682 111.84 46.4054C111.84 46.1613 111.743 45.9661 111.565 45.8359C111.37 45.7057 111.111 45.6081 110.754 45.5755L110.187 45.5105C109.734 45.4616 109.361 45.3152 109.085 45.0874C108.81 44.8596 108.664 44.5342 108.664 44.1274C108.664 43.8345 108.745 43.5742 108.891 43.3464C109.037 43.1186 109.247 42.9559 109.523 42.8257C109.798 42.6955 110.122 42.6467 110.495 42.6467C111.03 42.6467 111.467 42.7769 111.808 43.021C112.148 43.2813 112.31 43.6393 112.326 44.1111H111.662C111.662 43.8671 111.548 43.6718 111.354 43.5091C111.16 43.3464 110.868 43.265 110.495 43.265C110.122 43.265 109.815 43.3464 109.62 43.5254C109.426 43.7044 109.328 43.8996 109.328 44.1599C109.328 44.3715 109.393 44.5342 109.539 44.6806C109.685 44.8271 109.912 44.9084 110.22 44.9247L110.787 44.9898C111.289 45.0549 111.71 45.185 112.018 45.4291C112.342 45.6569 112.504 45.9986 112.504 46.4379C112.504 46.7308 112.423 47.0074 112.245 47.2352C112.067 47.463 111.84 47.6583 111.532 47.7884C111.224 47.9186 110.868 47.9837 110.479 47.9837H110.511Z" fill="#F4F7F8"/>
</g>
<defs>
<clipPath id="clip0_52609_2241">
<rect width="136" height="48" fill="white"/>
</clipPath>
</defs>
</svg>
