<svg width="19" height="19" viewBox="0 0 19 19" fill="none" xmlns="http://www.w3.org/2000/svg">
<path fill-rule="evenodd" clip-rule="evenodd" d="M9.47272 3.02845C9.64529 2.85594 9.8793 2.75903 10.1233 2.75903C10.3673 2.75903 10.6013 2.85594 10.7739 3.02845L16.295 8.54962C16.4676 8.72218 16.5645 8.95619 16.5645 9.2002C16.5645 9.4442 16.4676 9.67821 16.295 9.85077L10.7739 15.3719C10.6003 15.5396 10.3679 15.6323 10.1266 15.6302C9.88534 15.6281 9.65454 15.5313 9.48393 15.3607C9.31332 15.1901 9.21655 14.9593 9.21445 14.7181C9.21235 14.4768 9.3051 14.2443 9.47272 14.0708L13.4231 10.1204H2.76175C2.5177 10.1204 2.28364 10.0234 2.11107 9.85087C1.9385 9.6783 1.84155 9.44425 1.84155 9.2002C1.84155 8.95615 1.9385 8.72209 2.11107 8.54952C2.28364 8.37695 2.5177 8.28 2.76175 8.28H13.4231L9.47272 4.32961C9.30021 4.15705 9.2033 3.92303 9.2033 3.67903C9.2033 3.43503 9.30021 3.20102 9.47272 3.02845Z" fill="#0A0A0A"/>
</svg>
