<svg width="24" height="24" viewBox="0 0 24 24" fill="none" xmlns="http://www.w3.org/2000/svg">
<path d="M9.57143 16.0001H13C14.1046 16.0001 15 15.1046 15 14.0001C15 12.8955 14.1046 12.0001 13 12.0001H9.60515C9.58652 12.0001 9.57143 12.0152 9.57143 12.0338V16.0001ZM9.57143 16.0001H9" stroke="#4F5C75" stroke-width="1.5" stroke-linecap="round"/>
<path d="M9.57143 8.00006H13C14.1046 8.00006 15 8.89549 15 10.0001C15 11.1046 14.1046 12.0001 13 12.0001H9.60515C9.58652 12.0001 9.57143 11.985 9.57143 11.9663V8.00006ZM9.57143 8.00006H9" stroke="#4F5C75" stroke-width="1.5" stroke-linecap="round"/>
<path d="M10.1428 7.14288V8.00003" stroke="#4F5C75" stroke-width="1.5" stroke-linecap="round"/>
<path d="M10.1428 16.0001V16.8572" stroke="#4F5C75" stroke-width="1.5" stroke-linecap="round"/>
<path d="M13 7.14288V8.00003" stroke="#4F5C75" stroke-width="1.5" stroke-linecap="round"/>
<path d="M13 16.0001V16.8572" stroke="#4F5C75" stroke-width="1.5" stroke-linecap="round"/>
<path d="M20 12.0001C20 16.4183 16.4183 20.0001 12 20.0001C7.58172 20.0001 4 16.4183 4 12.0001C4 7.58178 7.58172 4.00006 12 4.00006C16.4183 4.00006 20 7.58178 20 12.0001Z" stroke="#4F5C75" stroke-width="1.5"/>
</svg>
