<svg width="24" height="24" viewBox="0 0 24 24" fill="none" xmlns="http://www.w3.org/2000/svg">
<path d="M12 7.9999L17 7.9999C18.6569 7.9999 20 9.34305 20 10.9999L20 15.9999C20 17.6568 18.6569 18.9999 17 18.9999L7 18.9999C5.34314 18.9999 4 17.6568 4 15.9999V6.49991" stroke="#4F5C75" stroke-width="1.5"/>
<path d="M15.25 4.99991C16.4926 4.99991 17.5 6.00727 17.5 7.24991C17.5 7.66412 17.1642 7.99991 16.75 7.99991L5.5 7.99991C4.67157 7.99991 4 7.32834 4 6.49991C4 5.67148 4.67157 4.99991 5.5 4.99991L15.25 4.99991Z" stroke="#4F5C75" stroke-width="1.5"/>
<path d="M17 13.4999C17 14.3283 16.3284 14.9999 15.5 14.9999C14.6716 14.9999 14 14.3283 14 13.4999C14 12.6715 14.6716 11.9999 15.5 11.9999C16.3284 11.9999 17 12.6715 17 13.4999Z" stroke="#4F5C75" stroke-width="1.5"/>
</svg>
