<svg width="913" height="137" viewBox="0 0 913 137" fill="none" xmlns="http://www.w3.org/2000/svg">
<g opacity="0.5" clip-path="url(#clip0_52610_37703)">
<g clip-path="url(#clip1_52610_37703)">
<path d="M73.4273 144.931C60.9992 144.931 50.1834 142.772 40.9798 138.455C31.7763 134.138 24.1179 128.471 18.0718 121.456C11.9585 114.44 7.45752 106.75 4.43446 98.5202C1.47859 90.2903 -0.0665283 82.3303 -0.0665283 74.5727V70.4578C-0.0665283 61.8232 1.47859 53.391 4.56882 45.0937C7.65906 36.7964 12.3616 29.3086 18.5421 22.5629C24.7225 15.8171 32.4481 10.488 41.5844 6.4405C50.7208 2.4605 61.3351 0.436768 73.3601 0.436768C85.3851 0.436768 95.7979 2.4605 104.934 6.4405C114.071 10.4205 121.729 15.8171 127.977 22.5629C134.157 29.3086 138.86 36.7964 142.017 45.0937C145.174 53.391 146.787 61.8232 146.787 70.4578V74.5727C146.787 82.3303 145.242 90.2903 142.219 98.5202C139.196 106.75 134.627 114.373 128.514 121.456C122.401 128.539 114.81 134.205 105.606 138.455C96.4025 142.772 85.6539 144.931 73.3601 144.931H73.4273ZM73.4273 112.349C79.4062 112.349 84.7134 111.337 89.4831 109.381C94.1856 107.357 98.2163 104.591 101.575 100.949C104.934 97.3059 107.487 93.1236 109.234 88.3341C110.98 83.5446 111.854 78.3503 111.854 72.6839C111.854 66.6802 110.98 61.2836 109.167 56.4266C107.353 51.5697 104.8 47.3873 101.441 43.8795C98.082 40.3717 94.0512 37.6734 89.3487 35.852C84.6462 33.9632 79.339 33.0188 73.4945 33.0188C67.6499 33.0188 62.2084 33.9632 57.4387 35.852C52.7362 37.7408 48.7054 40.4391 45.3465 43.8795C41.9875 47.3873 39.4347 51.5697 37.6881 56.4266C35.9414 61.2836 35.0681 66.7476 35.0681 72.6839C35.0681 78.2829 35.9414 83.4771 37.6881 88.3341C39.4347 93.1236 41.9875 97.3734 45.3465 100.949C48.7054 104.591 52.7362 107.357 57.4387 109.381C62.1412 111.405 67.5155 112.349 73.4945 112.349H73.4273Z" fill="#0E0F10"/>
<path d="M153.977 31.4666V7.99136C153.977 6.10255 155.522 4.55103 157.403 4.55103H259.784C261.665 4.55103 263.21 6.10255 263.21 7.99136V31.4666C263.21 33.3554 261.665 34.907 259.784 34.907H157.403C155.522 34.907 153.977 33.3554 153.977 31.4666ZM191.261 137.78V34.5697C191.261 32.6809 192.806 31.1293 194.687 31.1293H222.567C224.448 31.1293 225.993 32.6809 225.993 34.5697V137.78C225.993 139.669 224.448 141.22 222.567 141.22H194.687C192.806 141.22 191.261 139.669 191.261 137.78Z" fill="#0E0F10"/>
<path d="M340.531 144.931C328.238 144.931 317.691 142.772 308.823 138.455C300.022 134.138 292.7 128.471 286.99 121.456C281.28 114.44 277.047 106.75 274.293 98.5202C271.539 90.2903 270.195 82.3303 270.195 74.5727V70.4578C270.195 61.8232 271.606 53.391 274.36 45.0937C277.182 36.7964 281.414 29.3086 287.191 22.5629C292.969 15.8171 300.224 10.488 308.89 6.4405C317.556 2.4605 327.767 0.436768 339.457 0.436768C351.885 0.436768 362.902 2.79778 372.509 7.45236C382.115 12.1069 389.841 18.6503 395.685 27.0825C400.724 34.368 404.016 42.6652 405.426 51.9744C405.762 54.268 403.948 56.3591 401.664 56.3591H375.464C373.046 56.3591 371.031 54.7402 370.292 52.4466C369.284 49.2761 367.739 46.5103 365.656 44.0144C362.768 40.5066 359.14 37.8083 354.639 35.852C350.138 33.8958 345.1 32.9513 339.322 32.9513C333.948 32.9513 329.178 33.8958 324.879 35.7846C320.579 37.6734 317.019 40.3042 314.063 43.7446C311.174 47.1849 308.89 51.2998 307.345 56.1568C305.8 61.0137 304.994 66.5452 304.994 72.6164C304.994 78.6876 305.8 84.2191 307.345 89.0761C308.89 93.9331 311.174 98.1154 314.264 101.623C317.287 105.131 320.982 107.762 325.349 109.583C329.716 111.405 334.687 112.282 340.263 112.282C348.929 112.282 356.318 110.19 362.365 105.941C367.336 102.433 370.695 97.913 372.441 92.449C373.113 90.2903 375.129 88.8737 377.413 88.8737H403.612C405.964 88.8737 407.778 91.0324 407.374 93.3934C405.829 101.893 402.672 109.718 397.768 116.936C392.058 125.436 384.332 132.182 374.658 137.241C364.985 142.3 353.564 144.796 340.33 144.796L340.531 144.931Z" fill="#0E0F10"/>
<path d="M426.455 138.185V7.51916C426.455 5.90018 427.799 4.55103 429.411 4.55103H481.34C482.549 4.55103 483.624 5.29306 484.095 6.37238L527.895 111.674C528.366 112.753 529.44 113.495 530.65 113.495H531.456V112.821V7.51916C531.456 5.90018 532.799 4.55103 534.412 4.55103H560.947C562.56 4.55103 563.903 5.90018 563.903 7.51916V138.185C563.903 139.804 562.56 141.153 560.947 141.153H508.682C507.473 141.153 506.398 140.411 505.928 139.331L462.127 34.03C461.657 32.9507 460.582 32.2087 459.373 32.2087H458.567V32.8832V138.185C458.567 139.804 457.223 141.153 455.611 141.153H429.478C427.866 141.153 426.522 139.804 426.522 138.185H426.455Z" fill="#0E0F10"/>
</g>
</g>
<defs>
<clipPath id="clip0_52610_37703">
<rect width="913" height="136.874" fill="white"/>
</clipPath>
<clipPath id="clip1_52610_37703">
<rect width="564" height="141" fill="white" transform="translate(0 0.436768)"/>
</clipPath>
</defs>
</svg>
