<svg width="32" height="32" viewBox="0 0 32 32" fill="none" xmlns="http://www.w3.org/2000/svg">
<rect width="32" height="32" rx="16" fill="#F7931A"/>
<path fill-rule="evenodd" clip-rule="evenodd" d="M23.5005 13.9843C23.8239 11.8228 22.1781 10.6608 19.9277 9.88558L20.6577 6.95746L18.8753 6.51327L18.1646 9.36422C17.6961 9.24747 17.2148 9.13731 16.7366 9.02816L17.4524 6.15843L15.6711 5.71423L14.9406 8.64133C14.5527 8.553 14.172 8.46569 13.8024 8.3738L13.8044 8.36467L11.3464 7.75092L10.8723 9.6546C10.8723 9.6546 12.1947 9.95766 12.1668 9.97645C12.8887 10.1567 13.0191 10.6344 12.9973 11.0131L12.1658 14.3488C12.2155 14.3615 12.28 14.3798 12.3511 14.4082L12.2907 14.3931C12.2493 14.3828 12.2065 14.372 12.1627 14.3615L10.9972 19.0344C10.9088 19.2537 10.685 19.5827 10.1803 19.4578C10.1981 19.4837 8.88483 19.1344 8.88483 19.1344L8 21.1747L10.3194 21.7529C10.5785 21.8178 10.8344 21.8845 11.0877 21.9506C11.2563 21.9945 11.4237 22.0382 11.5901 22.0808L10.8525 25.0424L12.6328 25.4866L13.3633 22.5565C13.8496 22.6885 14.3217 22.8103 14.7837 22.925L14.0557 25.8415L15.8381 26.2857L16.5757 23.3296C19.615 23.9048 21.9004 23.6728 22.8624 20.9239C23.6376 18.7105 22.8238 17.4338 21.2247 16.6013C22.3893 16.3327 23.2665 15.5667 23.5005 13.9843ZM19.4276 19.695C18.9223 21.7257 15.7438 20.8862 14.2894 20.502L14.2893 20.502C14.1585 20.4675 14.0417 20.4366 13.942 20.4118L14.9207 16.4882C15.0421 16.5185 15.1905 16.5518 15.3585 16.5895L15.3586 16.5895C16.8628 16.9271 19.9454 17.6188 19.4276 19.695ZM15.6607 14.7685C16.8732 15.0921 19.5181 15.7979 19.9788 13.9523C20.4492 12.0645 17.8786 11.4954 16.6232 11.2175C16.482 11.1863 16.3574 11.1587 16.2557 11.1333L15.3683 14.6919C15.4521 14.7128 15.5505 14.7391 15.6607 14.7685Z" fill="white"/>
</svg>
