<svg width="32" height="32" viewBox="0 0 32 32" fill="none" xmlns="http://www.w3.org/2000/svg">
<g clip-path="url(#clip0_326_8115)">
<path d="M31.9713 15.9944C31.9713 24.7872 24.8437 31.9148 16.0509 31.9148C7.25837 31.9148 0.130493 24.7872 0.130493 15.9944C0.130493 7.2017 7.25837 0.0739746 16.0509 0.0739746C24.8437 0.0739746 31.9713 7.2017 31.9713 15.9944Z" fill="#1BA27A"/>
<path d="M23.5228 8.10205H8.44775V11.7415H14.1656V17.0907H17.805V11.7415H23.5228V8.10205Z" fill="white"/>
<path d="M16.0198 17.6604C11.2899 17.6604 7.45513 16.9118 7.45513 15.9883C7.45513 15.0649 11.2897 14.3162 16.0198 14.3162C20.7498 14.3162 24.5844 15.0649 24.5844 15.9883C24.5844 16.9118 20.7498 17.6604 16.0198 17.6604ZM25.6365 16.2671C25.6365 15.0762 21.331 14.111 16.0198 14.111C10.7088 14.111 6.40295 15.0762 6.40295 16.2671C6.40295 17.3157 9.74162 18.1894 14.1657 18.383V26.0621H17.8048V18.3861C22.263 18.1985 25.6365 17.3212 25.6365 16.2671Z" fill="white"/>
</g>
<defs>
<clipPath id="clip0_326_8115">
<rect width="32" height="32" fill="white"/>
</clipPath>
</defs>
</svg>
